<svg width="327" height="228" viewBox="0 0 327 228" fill="none" xmlns="http://www.w3.org/2000/svg">
<path opacity="0.127" d="M271 84.4789C286.553 84.4789 299.161 71.8709 299.161 56.318C299.161 40.7652 286.553 28.1571 271 28.1571C255.447 28.1571 242.839 40.7652 242.839 56.318C242.839 71.8709 255.447 84.4789 271 84.4789Z" fill="#FFAB00"/>
<path opacity="0.2" d="M271 73.2146C280.332 73.2146 287.897 65.6498 287.897 56.3181C287.897 46.9864 280.332 39.4215 271 39.4215C261.668 39.4215 254.104 46.9864 254.104 56.3181C254.104 65.6498 261.668 73.2146 271 73.2146Z" fill="#FFAB00"/>
<g filter="url(#filter0_f)">
<path d="M271 65.1686C275.888 65.1686 279.851 61.206 279.851 56.318C279.851 51.4299 275.888 47.4674 271 47.4674C266.112 47.4674 262.149 51.4299 262.149 56.318C262.149 61.206 266.112 65.1686 271 65.1686Z" fill="#FFAB00"/>
</g>
<g clip-path="url(#clip0)">
<path d="M162.637 134.469C163.356 137.475 165.135 140.122 167.648 141.925C169.489 143.236 172.097 144.004 173.955 142.72C175.623 141.567 175.986 139.274 175.988 137.247C175.989 135.46 175.826 133.677 175.501 131.919C175.248 130.273 174.703 128.684 173.892 127.229C173.067 125.765 171.739 124.65 170.154 124.092C163.584 122.036 161.523 129.732 162.637 134.469Z" fill="#637079"/>
<path d="M195.638 127.848C198.724 127.632 201.628 126.312 203.819 124.13C205.414 122.531 206.598 120.086 205.633 118.043C204.767 116.21 202.562 115.478 200.561 115.143C198.797 114.848 197.009 114.716 195.221 114.749C193.553 114.728 191.896 115.006 190.326 115.567C188.746 116.139 187.429 117.266 186.619 118.736C183.516 124.876 190.778 128.17 195.638 127.848Z" fill="#637079"/>
<path d="M193.808 101.123C195.574 103.937 195.74 107.609 197.361 110.565C198.286 112.252 199.735 113.951 199.335 115.833C199.11 116.894 198.321 117.741 197.493 118.444C194.481 120.981 190.646 122.335 186.706 122.254C185.59 122.265 184.484 122.043 183.459 121.602C182.948 121.378 182.489 121.051 182.111 120.642C181.733 120.232 181.444 119.749 181.262 119.223C180.98 118.281 181.146 117.263 180.979 116.294C180.621 114.221 178.834 112.72 177.074 111.564C175.42 110.475 173.61 109.42 172.438 107.77C171.302 106.17 172.435 103.451 173.159 101.841C174.233 99.4509 175.792 97.0184 177.933 95.4479C179.26 94.4753 180.363 94.0846 181.943 94.5566C183.881 95.1331 185.784 95.8174 187.645 96.6061C189.731 97.4913 191.826 98.5607 193.241 100.327C193.445 100.581 193.634 100.847 193.808 101.123Z" fill="#BEC9D2"/>
<path d="M131.703 77.7978C130.528 79.3773 129.973 81.3351 129.663 83.2761C129.068 87.0257 129.308 90.8579 129.755 94.6285C130.295 99.3029 131.185 103.931 132.417 108.473C133.018 110.667 133.732 112.885 135.105 114.699C136.838 116.987 139.467 118.426 142.135 119.488C146.19 121.099 150.595 121.995 154.939 121.569C156.281 121.481 157.595 121.14 158.809 120.563C160.738 119.568 162.105 117.726 163.024 115.762C163.94 113.886 164.382 111.815 164.312 109.729C164.061 105.119 160.83 101.313 158.667 97.2314C155.928 92.0692 154.826 86.1981 152.44 80.8648C151.387 78.5134 150.029 76.207 147.96 74.6712C143.385 71.2741 135.032 73.3248 131.703 77.7978Z" fill="#7C8B96"/>
<path d="M186.5 72.4959C186.034 72.4156 185.376 72.3765 185.339 71.9054C185.345 71.7423 185.395 71.5839 185.484 71.4473C185.919 70.6002 186.095 69.4825 185.48 68.7541C184.897 68.0616 183.869 68.0057 182.964 67.9885C182.789 67.999 182.614 67.9652 182.455 67.8902C181.949 67.5965 182.241 66.8398 182.235 66.2566C182.228 65.2799 181.116 64.5908 180.148 64.7192C179.182 64.9294 178.337 65.5086 177.793 66.3332C176.945 67.4462 176.37 68.7426 176.115 70.1181C175.841 69.9263 175.52 69.8136 175.186 69.7924C174.853 69.7712 174.52 69.8423 174.225 69.9979C173.896 70.2268 173.609 70.5117 173.379 70.8397C171.912 72.7084 169.811 73.9745 167.471 74.3984C165.162 74.747 163.96 73.4724 161.937 73.0634C159.883 72.6483 159.328 75.2056 159.585 76.9083C159.863 78.7458 160.989 80.3454 162.254 81.7085C164.593 84.2305 167.673 86.2552 171.101 86.5573C172.69 86.6845 174.287 86.4451 175.768 85.8576C177.249 85.2701 178.575 84.3503 179.644 83.1692C180.195 82.5887 180.614 81.8954 180.87 81.1372C180.959 80.8391 181.014 80.5318 181.033 80.2214C182.929 80.1504 184.744 79.4357 186.178 78.1952C187.114 77.4371 187.973 76.4682 188.176 75.2812C188.379 74.0943 187.688 72.6999 186.5 72.4959Z" fill="#CAD6DD"/>
<path d="M164.076 122.249C164.475 122.504 164.794 122.865 164.998 123.292C165.057 123.57 165.028 123.858 164.916 124.118C164.372 125.859 163.916 127.698 164.243 129.493C164.798 132.541 167.678 134.861 170.754 135.254C173.831 135.646 176.963 134.334 179.246 132.239C181.529 130.144 183.049 127.333 184.122 124.426C184.951 122.39 185.368 120.21 185.346 118.011C185.19 114.445 183.245 111.087 180.499 108.802C176.475 105.452 171.947 104.609 166.979 106.165C164.388 106.977 161.943 108.19 159.406 109.158C157.381 109.932 155.266 110.564 153.486 111.802C152.934 112.132 152.497 112.625 152.236 113.213C152.131 113.561 152.108 113.928 152.169 114.285C152.229 114.643 152.371 114.983 152.583 115.277C153.013 115.863 153.561 116.352 154.192 116.713C155.633 117.532 157.115 118.277 158.633 118.943C159.937 119.586 161.192 120.323 162.389 121.148C162.782 121.417 163.49 121.807 164.076 122.249Z" fill="#CAD6DD"/>
<path d="M139.381 81.0557C136.661 78.3571 133.193 80.0766 132.324 83.3842C130.861 88.9597 132.233 94.8248 133.079 100.527C133.834 105.613 134.5 111.995 138.995 115.269C139.995 115.997 141.188 116.61 142.418 116.453C143.072 116.328 143.682 116.036 144.19 115.607C144.698 115.177 145.086 114.623 145.317 114C145.764 112.745 145.906 111.402 145.731 110.082C145.465 106.992 144.298 104.12 143.877 101.077C143.44 97.9159 142.838 94.7774 142.531 91.5993C142.421 89.7272 142.2 87.8632 141.868 86.0174C141.531 84.1601 140.668 82.4383 139.381 81.0557Z" fill="#929FA9"/>
<path d="M173.342 83.3437C173.002 83.2055 172.664 83.0623 172.33 82.9101C170.499 82.0745 168.785 80.9641 166.867 80.3534C166.813 80.3294 166.752 80.3251 166.695 80.3413C166.559 80.3998 166.625 80.6046 166.711 80.7252C167.34 81.7212 168.067 82.6519 168.881 83.5035C169.742 84.3526 170.698 85.0997 171.73 85.7302C172.551 86.2335 173.466 86.5646 174.419 86.7035C174.862 86.7494 175.024 86.5901 175.336 86.3456C175.728 86.0394 176.171 85.8124 176.55 85.4848C176.644 85.425 176.72 85.3417 176.772 85.2431C176.824 85.1446 176.848 85.0343 176.844 84.9231C176.816 84.8433 176.771 84.7706 176.711 84.7103C176.652 84.65 176.58 84.6036 176.5 84.5744C175.498 84.0871 174.379 83.7657 173.342 83.3437Z" fill="#BEC9D2"/>
<path d="M142.013 93.5481C142.145 98.3449 142.871 103.235 145.125 107.472C147.38 111.71 151.362 115.227 156.101 116.004C159.243 116.518 162.502 115.81 165.367 114.425C168.201 112.965 170.787 111.066 173.028 108.799C175.627 106.295 177.982 103.55 180.061 100.599C181.459 98.6154 182.777 96.378 182.705 93.9505C182.625 91.2457 180.799 88.8575 178.604 87.2715C176.409 85.6854 173.835 84.726 171.407 83.5285C168.978 82.3309 166.583 80.7906 165.209 78.4595C163.953 76.3286 163.669 73.7338 162.407 71.6089C160.541 68.4728 156.585 66.8307 152.985 67.4321C142.035 69.2605 141.781 85.1056 142.013 93.5481Z" fill="#CAD6DD"/>
<path d="M157.828 80.6594C159.339 80.3853 160.868 79.8857 161.99 78.8377C163.111 77.7896 163.727 76.0914 163.155 74.667C162.678 73.693 161.901 72.8973 160.938 72.3964C157.023 70.0155 151.32 69.383 147.219 71.7093C142.481 74.3982 144.868 78.6511 149.013 80.0176C151.853 80.9593 154.883 81.1798 157.828 80.6594Z" fill="#BEC9D2"/>
<path d="M170.848 101.252C168.189 103.323 165.223 104.968 162.057 106.127C158.762 107.373 155.195 107.872 151.811 108.937C150.724 109.228 149.69 109.686 148.746 110.297C148.473 110.461 148.261 110.709 148.14 111.002C148.075 111.269 148.089 111.548 148.181 111.806C148.732 113.778 150.679 115.141 152.701 115.47C155.508 115.926 158.646 114.731 161.13 113.53C165.521 111.407 169.823 109.027 173.588 105.927C177.352 102.826 180.569 98.9584 182.382 94.434C182.97 92.9647 183.404 91.299 182.828 89.8224C182.409 88.7501 180.562 87.2705 179.364 88.124C178.458 88.7712 178.195 91.4927 177.73 92.5389C176.167 95.9519 173.807 98.9399 170.848 101.252Z" fill="#A6B3BD"/>
<path d="M161.843 83.4762C162.618 83.0514 163.488 82.8297 164.371 82.8317C165.552 82.9176 166.552 83.7133 167.395 84.5431C169.08 86.2046 170.468 88.141 171.501 90.2689C171.902 91.0962 172.247 92.0793 171.847 92.9066C171.462 93.5206 170.88 93.9858 170.196 94.2259C167.938 95.2826 165.578 96.1074 163.152 96.6874C162.656 96.8347 162.136 96.8892 161.62 96.848C160.881 96.6999 160.21 96.3164 159.708 95.7553C158.735 94.6934 157.92 93.4972 157.289 92.2034C156.701 91.1288 155.424 89.7025 155.285 88.4803C155.14 87.2144 156.662 86.5652 157.555 85.9414C158.909 84.9959 160.344 84.171 161.843 83.4762Z" fill="#7C8B96"/>
<path d="M147.048 36.4628C143.975 37.3619 141.085 38.794 138.509 40.6937C135.454 43.0074 133.351 46.3921 131.963 49.9627C130.318 54.1951 129.598 58.8522 130.392 63.323C131.185 67.7938 133.58 72.0525 137.291 74.6754C140.825 77.1716 145.257 78.0514 149.576 78.3365C152.256 78.5639 154.954 78.4349 157.599 77.9526C160.856 77.2942 163.912 75.8823 166.523 73.8303C169.135 71.7782 171.228 69.143 172.635 66.1363C174.042 63.1295 174.724 59.8348 174.626 56.5165C174.528 53.1983 173.653 49.9489 172.071 47.0291C169.483 42.2534 165.382 39.4639 160.7 36.9973C156.752 34.9176 151.697 35.0863 147.048 36.4628Z" fill="#D8E2E7"/>
<path d="M147.14 100.094C148.965 102.74 152.095 104.577 155.305 104.397C156.075 104.414 156.821 104.13 157.384 103.605C157.613 103.317 157.771 102.979 157.846 102.619C157.921 102.258 157.911 101.885 157.817 101.529C157.621 100.819 157.298 100.151 156.863 99.5558C154.702 96.2796 151.947 93.435 148.742 91.1678C148.185 90.7137 147.526 90.4034 146.821 90.2644C142.567 89.7419 146.077 98.5537 147.14 100.094Z" fill="#BEC9D2"/>
<path d="M167.539 102.375C167.203 102.609 166.917 102.907 166.698 103.253C166.242 104.087 166.649 105.129 167.18 105.917C167.74 106.748 168.436 107.478 169.239 108.079C169.66 108.434 170.17 108.666 170.714 108.75C171.478 108.743 172.215 108.465 172.794 107.966C174.103 107.027 175.255 105.887 176.206 104.587C176.847 103.822 177.241 102.88 177.336 101.887C177.369 100.374 176.256 99.0972 175.107 98.1103C173.774 96.9633 172.217 98.0908 171.18 99.1613C170.038 100.31 168.821 101.384 167.539 102.375Z" fill="#637079"/>
<path d="M162.516 85.3679C162.931 85.1491 163.391 85.0272 163.86 85.0111C164.171 85.0372 164.473 85.1316 164.744 85.2876C165.015 85.4436 165.248 85.6573 165.426 85.9136C165.539 86.045 165.61 86.2072 165.63 86.3794C165.644 86.7467 165.28 86.9979 164.959 87.1808L160.338 89.7675C159.59 90.1869 158.634 90.7006 157.786 90.2412C157.628 90.1701 157.488 90.0628 157.379 89.928C157.27 89.7931 157.194 89.6345 157.157 89.4649C157.121 89.2954 157.124 89.1196 157.168 88.9518C157.212 88.7839 157.295 88.6288 157.41 88.4988C158.371 87.0576 160.987 86.0493 162.516 85.3679Z" fill="#637079"/>
<path d="M171.214 98.5867C170.906 98.2287 170.423 97.7791 170.697 97.3939C170.806 97.272 170.945 97.1819 171.101 97.1334C171.977 96.7577 172.825 96.0085 172.816 95.0561C172.808 94.1513 172.052 93.4539 171.365 92.8644C171.223 92.7613 171.109 92.6243 171.034 92.4658C170.831 91.9189 171.54 91.5201 171.908 91.0664C172.524 90.3082 172.108 89.0709 171.279 88.5529C170.401 88.1 169.38 88.0082 168.434 88.2973C167.071 88.6143 165.801 89.2468 164.726 90.1439C164.638 89.8224 164.463 89.5315 164.219 89.303C163.976 89.0745 163.675 88.9173 163.349 88.8485C162.949 88.8153 162.546 88.8527 162.16 88.9589C159.837 89.4642 157.409 89.1011 155.336 87.9382C152.808 86.4206 153.13 82.5585 149.296 83.8641C148.085 84.3254 147.045 85.1468 146.316 86.2176C145.219 87.7887 144.623 89.6545 144.606 91.5704C144.589 93.4863 145.152 95.3628 146.221 96.954C148.654 100.435 154.884 103.097 159.123 102.446C159.918 102.35 160.683 102.082 161.365 101.662C161.623 101.489 161.861 101.287 162.075 101.061C163.581 102.213 165.436 102.817 167.332 102.775C168.538 102.788 169.819 102.589 170.732 101.803C171.645 101.018 172 99.5005 171.214 98.5867Z" fill="#E4EDF1"/>
<path d="M152.859 45.3516C148.635 46.8682 144.278 49.0946 141.686 52.8847C139.179 56.5506 138.078 61.2537 139.118 65.611C139.684 67.9337 140.832 70.0749 142.453 71.8338C144.073 73.5927 146.115 74.9116 148.385 75.6669C153.316 77.2023 159.333 75.8009 163.638 73.1666C168.039 70.4743 171.497 66.1091 172.621 61.0777C173.745 56.0462 172.35 50.4076 168.658 46.8049C167.591 45.7324 166.31 44.8969 164.898 44.3528C162.824 43.6419 160.586 43.5621 158.467 44.1236C156.589 44.5894 154.724 44.6815 152.859 45.3516Z" fill="#CAD6DD"/>
<path d="M152.044 47.5185C146.304 49.9869 141.535 54.5188 140.996 61.054C140.705 64.5895 142.375 68.1554 145.079 70.4558C147.861 72.7205 151.381 73.883 154.965 73.7215C157.312 73.6338 159.615 73.0637 161.731 72.0467C163.847 71.0298 165.731 69.5878 167.264 67.8109C171.375 62.9873 173.091 54.8638 168.949 49.5255C165.083 44.5434 157.19 45.3068 152.044 47.5185Z" fill="#16161D"/>
<path d="M160.151 52.4723C159.837 52.7716 159.607 53.148 159.484 53.564C159.189 54.7979 160.38 55.8136 161.181 56.7981C161.749 57.5061 162.157 58.3282 162.378 59.2082C162.598 60.0881 162.626 61.0052 162.46 61.8968C162.24 63.0368 161.717 64.2947 162.33 65.2816C162.904 66.2035 164.236 66.3586 165.256 65.9847C167.033 65.3336 168.132 63.502 168.556 61.6609C169.239 58.6981 168.23 55.6569 167.094 52.942C165.886 50.0543 162.03 50.4996 160.151 52.4723Z" fill="#FEFFFD"/>
<path d="M149.997 53.8986C150.196 54.1014 150.436 54.2598 150.7 54.363C150.965 54.4663 151.248 54.5122 151.532 54.4975C153.005 54.5806 154.477 54.3405 155.847 53.7939C158.592 52.6953 157.419 48.9367 154.663 49.0518C153.009 49.1211 148.369 51.753 149.997 53.8986Z" fill="#FEFFFD"/>
<path d="M162.853 100.714C162.877 101.449 162.821 102.374 162.136 102.648C161.869 102.721 161.584 102.699 161.332 102.584C161.079 102.47 160.874 102.27 160.754 102.021C160.527 101.513 160.441 100.954 160.503 100.401C160.652 98.0616 160.99 95.7379 161.513 93.4528C161.696 92.289 162.028 91.1537 162.502 90.0753C162.845 89.3804 164.18 87.5811 165.096 88.4928C165.837 89.2299 164.613 91.0947 164.352 91.7823C163.27 94.6323 162.761 97.6673 162.853 100.714Z" fill="#A6B3BD"/>
<path d="M179.496 74.4298C180.413 75.5544 181.17 76.8008 181.744 78.1332C182.106 79.0854 183.006 80.4845 182.387 81.4752C182.294 81.6241 182.17 81.7519 182.025 81.8507C181.88 81.9495 181.715 82.0169 181.543 82.0488C181.37 82.0807 181.192 82.0764 181.021 82.036C180.85 81.9957 180.689 81.9202 180.549 81.8145C180.086 81.382 179.956 80.5865 179.628 80.0502C179.239 79.4139 178.784 78.834 178.441 78.1644C177.832 76.8501 177.106 75.593 176.272 74.4081C175.296 73.1124 174.439 71.7786 173.337 70.5751C173.217 70.4701 173.135 70.3292 173.103 70.1737C173.103 70.0265 173.156 69.8843 173.254 69.774C173.442 69.5299 173.689 69.337 173.971 69.2129C174.254 69.0889 174.563 69.0377 174.87 69.064C175.825 69.1563 176.535 69.9661 177.074 70.7587C177.908 71.9872 178.595 73.226 179.496 74.4298Z" fill="#A6B3BD"/>
<path d="M133.426 54.4348C133.791 52.2949 134.872 50.3423 136.492 48.896C136.92 48.5378 137.617 48.254 137.976 48.681C138.259 49.019 138.076 49.5276 137.886 49.9256C136.411 53.014 135.126 56.3404 135.346 59.7559C135.425 60.3398 135.426 60.9317 135.349 61.5159C135.316 61.7645 135.193 61.9926 135.005 62.1585C134.831 62.2619 134.627 62.3028 134.427 62.2745C134.226 62.2461 134.041 62.1503 133.903 62.0028C133.048 61.1849 133.191 59.5551 133.153 58.4839C133.087 57.1281 133.178 55.7693 133.426 54.4348Z" fill="#BEC9D2"/>
<path d="M149.099 93.4825C148.946 94.3668 148.961 95.3802 149.579 96.0318C152.751 99.3733 153.863 94.7404 154.629 92.3104C154.775 91.9387 154.843 91.5409 154.828 91.1418C154.687 89.83 152.566 88.8665 151.373 89.2783C149.943 89.7721 149.322 92.194 149.099 93.4825Z" fill="#16161D"/>
<path d="M129.017 58.8751C128.717 58.8269 128.41 58.84 128.115 58.9137C127.82 58.9873 127.543 59.12 127.301 59.3037C127.123 59.514 126.995 59.7632 126.93 60.0313C126.865 60.2994 126.863 60.5791 126.924 60.8481C127.23 62.7817 129.09 64.0501 130.868 64.8738C132.808 65.7727 134.851 66.4315 136.951 66.8359C137.49 66.9738 138.052 66.9937 138.599 66.894C139.733 66.6122 140.445 65.3492 140.338 64.1853C140.254 63.6056 140.046 63.0505 139.73 62.5572C139.413 62.0638 138.995 61.6436 138.503 61.3246C137.27 60.4531 135.988 60.2064 134.559 59.9278C132.681 59.5595 130.958 58.962 129.017 58.8751Z" fill="#7C8B96"/>
<path d="M136.974 65.0804C137.058 65.2126 137.168 65.3268 137.297 65.4163C137.426 65.5058 137.571 65.5689 137.725 65.6019C137.886 65.6135 138.048 65.59 138.199 65.5331C138.351 65.4763 138.488 65.3873 138.602 65.2725C139.554 64.4086 139.341 62.3568 137.83 62.3114C136.36 62.2674 136.314 64.1747 136.974 65.0804Z" fill="#637079"/>
<path d="M172.377 119.311C172.191 119.404 172.025 119.534 171.89 119.693C171.755 119.852 171.653 120.036 171.59 120.234C171.568 120.48 171.627 120.726 171.757 120.936C171.888 121.145 172.084 121.306 172.315 121.393C172.782 121.557 173.284 121.593 173.77 121.497C175.085 121.301 176.37 120.939 177.593 120.418C178.746 119.951 184.476 116.752 180.964 115.77C179.565 115.379 178.58 116.104 177.438 116.776C175.809 117.734 173.965 118.29 172.377 119.311Z" fill="#BEC9D2"/>
<path d="M188.168 103.1C187.698 103.661 187.437 104.368 187.429 105.099C187.436 105.277 187.495 105.448 187.6 105.592C187.695 105.696 187.816 105.772 187.95 105.814C188.084 105.856 188.227 105.861 188.364 105.83C188.637 105.765 188.893 105.641 189.113 105.466C189.987 104.843 192.523 102.257 191.772 100.996C190.808 99.3788 188.576 102.514 188.168 103.1Z" fill="#A6B3BD"/>
<g clip-path="url(#clip1)">
<path fill-rule="evenodd" clip-rule="evenodd" d="M171.212 90.7287L171.514 71.7992L187.042 60.9687L186.395 79.7143L171.212 90.7287Z" fill="#FBF063"/>
<path fill-rule="evenodd" clip-rule="evenodd" d="M186.394 79.7126L171.212 90.7288L189.996 100.72L205.426 89.8347L186.394 79.7126Z" fill="#F29C1F"/>
<path fill-rule="evenodd" clip-rule="evenodd" d="M205.425 89.8368L205.827 70.9579L187.043 60.9667L186.394 79.7126L205.425 89.8368Z" fill="#F0C419"/>
<path opacity="0.5" fill-rule="evenodd" clip-rule="evenodd" d="M171.338 81.9006L186.691 70.9794L186.725 69.9929L171.353 80.9273L171.338 81.9006Z" fill="#F29C1F"/>
<path opacity="0.5" fill-rule="evenodd" clip-rule="evenodd" d="M171.313 84.4255L186.595 73.9162L186.836 66.9455L171.414 78.0556L171.313 84.4255Z" fill="white"/>
<path opacity="0.5" fill-rule="evenodd" clip-rule="evenodd" d="M186.597 73.9119L186.833 66.9438L190.639 68.9685L190.749 76.1206L186.597 73.9119Z" fill="white"/>
</g>
</g>
<path fill-rule="evenodd" clip-rule="evenodd" d="M259.61 50.06L269.5 45L279.39 50.06L269.5 54.8902L259.61 50.06Z" fill="#FBF063"/>
<path fill-rule="evenodd" clip-rule="evenodd" d="M269.501 54.8894L259.61 50.0601V62.5445L269.501 67.5387L269.501 54.8894Z" fill="#F29C1F"/>
<path fill-rule="evenodd" clip-rule="evenodd" d="M269.5 67.5387L279.391 62.5445V50.0601L269.501 54.8894L269.5 67.5387Z" fill="#F0C419"/>
<path opacity="0.5" fill-rule="evenodd" clip-rule="evenodd" d="M264.218 47.6921L274.107 52.6367L274.627 52.3825L264.727 47.432L264.218 47.6921Z" fill="#F29C1F"/>
<path opacity="0.5" fill-rule="evenodd" clip-rule="evenodd" d="M262.903 48.3751L272.559 53.3962L276.237 51.6001L266.231 46.6724L262.903 48.3751Z" fill="white"/>
<path opacity="0.5" fill-rule="evenodd" clip-rule="evenodd" d="M272.562 53.3962L276.237 51.598V54.128L272.562 56.1559V53.3962Z" fill="white"/>
<path fill-rule="evenodd" clip-rule="evenodd" d="M187.05 22.3L193.5 19L199.95 22.3L193.5 25.4502L187.05 22.3Z" fill="#FBF063"/>
<path fill-rule="evenodd" clip-rule="evenodd" d="M193.5 25.4496L187.05 22.3V30.442L193.501 33.6992L193.5 25.4496Z" fill="#F29C1F"/>
<path fill-rule="evenodd" clip-rule="evenodd" d="M193.5 33.6992L199.951 30.442V22.3L193.5 25.4496L193.5 33.6992Z" fill="#F0C419"/>
<path opacity="0.5" fill-rule="evenodd" clip-rule="evenodd" d="M190.055 20.7558L196.504 23.9805L196.844 23.8148L190.387 20.5862L190.055 20.7558Z" fill="#F29C1F"/>
<path opacity="0.5" fill-rule="evenodd" clip-rule="evenodd" d="M189.198 21.2011L195.495 24.4758L197.894 23.3044L191.368 20.0907L189.198 21.2011Z" fill="white"/>
<path opacity="0.5" fill-rule="evenodd" clip-rule="evenodd" d="M195.497 24.4758L197.894 23.3031V24.9531L195.497 26.2757V24.4758Z" fill="white"/>
<g clip-path="url(#clip2)">
<path fill-rule="evenodd" clip-rule="evenodd" d="M60.2882 56.9047L51.3623 42.3481L57.945 26.5926L66.5187 41.1764L60.2882 56.9047Z" fill="#FBF063"/>
<path fill-rule="evenodd" clip-rule="evenodd" d="M66.5171 41.1754L60.2881 56.9047L79.42 55.4257L85.9017 39.6759L66.5171 41.1754Z" fill="#F29C1F"/>
<path fill-rule="evenodd" clip-rule="evenodd" d="M85.9021 39.678L77.0768 25.1115L57.9449 26.5905L66.5174 41.1755L85.9021 39.678Z" fill="#F0C419"/>
<path opacity="0.5" fill-rule="evenodd" clip-rule="evenodd" d="M56.1137 50.1234L62.5196 34.3833L62.0684 33.6158L55.6548 49.3749L56.1137 50.1234Z" fill="#F29C1F"/>
<path opacity="0.5" fill-rule="evenodd" clip-rule="evenodd" d="M57.3159 52.0577L63.8667 36.6656L60.6786 31.2424L54.3123 47.1592L57.3159 52.0577Z" fill="white"/>
<path opacity="0.5" fill-rule="evenodd" clip-rule="evenodd" d="M63.8664 36.6612L60.6755 31.2426L64.5526 30.9428L68.0957 36.3343L63.8664 36.6612Z" fill="white"/>
</g>
<g opacity="0.5">
<g clip-path="url(#clip3)">
<path d="M277 206.874C277 206.874 154.606 208.494 208.882 192.206C263.159 175.918 267.929 175.312 267.929 175.312L230.981 192.335L277 206.874Z" fill="url(#paint0_linear)"/>
</g>
</g>
<g clip-path="url(#clip4)">
<path fill-rule="evenodd" clip-rule="evenodd" d="M182.426 214.766L172.513 198.599L179.824 181.1L189.346 197.298L182.426 214.766Z" fill="#FBF063"/>
<path fill-rule="evenodd" clip-rule="evenodd" d="M189.344 197.297L182.426 214.766L203.674 213.123L210.873 195.631L189.344 197.297Z" fill="#F29C1F"/>
<path fill-rule="evenodd" clip-rule="evenodd" d="M210.873 195.633L201.072 179.456L179.824 181.098L189.344 197.297L210.873 195.633Z" fill="#F0C419"/>
<path opacity="0.5" fill-rule="evenodd" clip-rule="evenodd" d="M177.79 207.234L184.905 189.753L184.404 188.901L177.281 206.403L177.79 207.234Z" fill="#F29C1F"/>
<path opacity="0.5" fill-rule="evenodd" clip-rule="evenodd" d="M179.125 209.382L186.401 192.288L182.86 186.265L175.789 203.942L179.125 209.382Z" fill="white"/>
<path opacity="0.5" fill-rule="evenodd" clip-rule="evenodd" d="M186.4 192.283L182.856 186.265L187.162 185.932L191.097 191.92L186.4 192.283Z" fill="white"/>
</g>
<g clip-path="url(#clip5)">
<path fill-rule="evenodd" clip-rule="evenodd" d="M289.109 123.152L305.703 113.797L322.998 121.781L306.389 130.742L289.109 123.152Z" fill="#FBF063"/>
<path fill-rule="evenodd" clip-rule="evenodd" d="M306.39 130.741L289.109 123.152L289.974 144.542L307.268 152.413L306.39 130.741Z" fill="#F29C1F"/>
<path fill-rule="evenodd" clip-rule="evenodd" d="M307.265 152.413L323.866 143.171L323.001 121.781L306.39 130.741L307.265 152.413Z" fill="#F0C419"/>
<path opacity="0.5" fill-rule="evenodd" clip-rule="evenodd" d="M296.84 118.776L314.126 126.562L315 126.09L297.694 118.295L296.84 118.776Z" fill="#F29C1F"/>
<path opacity="0.5" fill-rule="evenodd" clip-rule="evenodd" d="M294.635 120.037L311.526 127.97L317.703 124.638L300.219 116.889L294.635 120.037Z" fill="white"/>
<path opacity="0.5" fill-rule="evenodd" clip-rule="evenodd" d="M311.531 127.97L317.703 124.635L317.878 128.969L311.722 132.699L311.531 127.97Z" fill="white"/>
</g>
<g clip-path="url(#clip6)">
<path opacity="0.5" fill-rule="evenodd" clip-rule="evenodd" d="M80.6991 132.93L98.9633 141.613L102.608 161.505L84.6759 152.568L80.6991 132.93Z" fill="#FFAB00"/>
<path fill-rule="evenodd" clip-rule="evenodd" d="M84.678 152.568L80.6992 132.93L62.6643 146.759L66.4057 166.579L84.678 152.568Z" fill="#F2994A"/>
<path opacity="0.5" fill-rule="evenodd" clip-rule="evenodd" d="M66.404 166.577L84.5747 175.335L102.61 161.506L84.6779 152.567L66.404 166.577Z" fill="#F2994A"/>
<path opacity="0.5" fill-rule="evenodd" clip-rule="evenodd" d="M89.2241 136.965L93.0344 156.727L93.9781 157.197L90.1631 137.411L89.2241 136.965Z" fill="#F29C1F"/>
<path opacity="0.5" fill-rule="evenodd" clip-rule="evenodd" d="M86.781 135.821L90.2226 155.332L96.8908 158.655L92.927 138.743L86.781 135.821Z" fill="white"/>
<path opacity="0.5" fill-rule="evenodd" clip-rule="evenodd" d="M90.2257 155.336L96.8937 158.653L93.2389 161.455L86.2389 158.393L90.2257 155.336Z" fill="white"/>
</g>
<g clip-path="url(#clip7)">
<path d="M81.0679 31.6152C81.534 32.164 82.0001 32.7129 82.3814 33.3462C86.1102 31.573 88.6102 30.7286 88.9916 31.3196C89.373 31.9107 87.4238 33.895 84.034 36.5549C80.7713 39.1303 76.1102 42.3389 70.8136 45.6321C66.0255 48.5874 61.5764 51.1206 57.9747 52.936C53.4408 55.2159 50.3475 56.3136 49.9238 55.6381C49.5001 55.0048 51.7458 52.7672 55.6018 49.854C55.2204 49.2207 54.9238 48.5874 54.6696 47.9541C46.3645 54.0337 41.1526 59.0579 42.1272 60.5778C43.1018 62.0977 50.2204 59.5223 59.7119 54.4559C63.4831 52.4716 67.6357 50.0651 71.9153 47.3631C76.6187 44.4077 80.9831 41.4945 84.6696 38.7925C92.8052 32.7973 97.8052 27.8999 96.9153 26.4644C96.0255 24.9867 89.7119 27.1821 81.0679 31.6152Z" fill="url(#paint1_linear)"/>
</g>
<g clip-path="url(#clip8)">
<path d="M99.3675 146.853C99.7191 147.619 100.071 148.384 100.3 149.218C105.067 148.408 108.153 148.252 108.396 149.038C108.639 149.824 105.812 151.437 101.146 153.353C96.6508 155.214 90.3779 157.343 83.3615 159.365C77.0255 161.169 71.2056 162.605 66.5688 163.503C60.7336 164.628 56.8977 164.88 56.634 163.986C56.357 163.138 59.5986 161.335 64.8701 159.282C64.6408 158.448 64.5071 157.642 64.4211 156.848C53.129 161.05 45.6595 165.046 46.2766 167.066C46.8938 169.086 55.7373 168.45 68.046 165.765C72.9275 164.731 78.3728 163.343 84.0551 161.663C90.2955 159.832 96.1403 157.941 101.154 156.072C112.228 151.912 119.418 147.991 118.87 146.093C118.335 144.148 110.52 144.612 99.3675 146.853Z" fill="url(#paint2_linear)"/>
</g>
<g clip-path="url(#clip9)">
<path d="M94.3 188.6C146.38 188.6 188.6 146.38 188.6 94.3C188.6 42.2196 146.38 2.36613e-06 94.3 1.52429e-06C42.2196 6.82449e-07 -6.82449e-07 42.2196 -1.52429e-06 94.3C-2.36613e-06 146.38 42.2195 188.6 94.3 188.6Z" fill="url(#paint3_linear)"/>
</g>
<defs>
<filter id="filter0_f" x="257.149" y="42.4674" width="27.7012" height="27.7012" filterUnits="userSpaceOnUse" color-interpolation-filters="sRGB">
<feFlood flood-opacity="0" result="BackgroundImageFix"/>
<feBlend mode="normal" in="SourceGraphic" in2="BackgroundImageFix" result="shape"/>
<feGaussianBlur stdDeviation="2.5" result="effect1_foregroundBlur"/>
</filter>
<linearGradient id="paint0_linear" x1="198.58" y1="212.063" x2="272.395" y2="190.85" gradientUnits="userSpaceOnUse">
<stop stop-color="#FDC800"/>
<stop offset="0.9999" stop-color="#FBFBFB"/>
<stop offset="1" stop-color="white"/>
</linearGradient>
<linearGradient id="paint1_linear" x1="42.0001" y1="43.4998" x2="97.0123" y2="43.4998" gradientUnits="userSpaceOnUse">
<stop offset="0.0837629" stop-color="#FDC800"/>
<stop offset="0.4282" stop-color="#FCFC0D"/>
<stop offset="0.6599" stop-color="#FFC600"/>
<stop offset="0.8578" stop-color="#FCFC0D"/>
<stop offset="1" stop-color="white"/>
</linearGradient>
<linearGradient id="paint2_linear" x1="51.5468" y1="147.812" x2="113.579" y2="165.29" gradientUnits="userSpaceOnUse">
<stop offset="0.0837629" stop-color="#FDC800"/>
<stop offset="0.4282" stop-color="#FCFC0D"/>
<stop offset="0.6599" stop-color="#FFC600"/>
<stop offset="0.8578" stop-color="#FCFC0D"/>
<stop offset="1" stop-color="white"/>
</linearGradient>
<linearGradient id="paint3_linear" x1="34.4481" y1="31.8166" x2="173.624" y2="177.11" gradientUnits="userSpaceOnUse">
<stop offset="0.00810811" stop-color="white"/>
<stop offset="1" stop-color="white" stop-opacity="0"/>
</linearGradient>
<clipPath id="clip0">
<rect x="132.541" y="31" width="89" height="103" transform="rotate(10.9361 132.541 31)" fill="white"/>
</clipPath>
<clipPath id="clip1">
<rect x="162.311" y="89.1016" width="39.1955" height="39.1955" transform="rotate(-61.9908 162.311 89.1016)" fill="white"/>
</clipPath>
<clipPath id="clip2">
<rect x="52.7246" y="59.9714" width="35.3519" height="35.3519" transform="rotate(-94.4204 52.7246 59.9714)" fill="white"/>
</clipPath>
<clipPath id="clip3">
<rect x="194" y="175" width="83" height="53" fill="white"/>
</clipPath>
<clipPath id="clip4">
<rect x="174.026" y="218.172" width="39.2622" height="39.2622" transform="rotate(-94.4204 174.026 218.172)" fill="white"/>
</clipPath>
<clipPath id="clip5">
<rect x="286" y="114.594" width="39.4385" height="39.4385" transform="rotate(-2.31664 286 114.594)" fill="white"/>
</clipPath>
<clipPath id="clip6">
<rect x="86.2256" y="125" width="41.8682" height="41.8682" transform="rotate(52.5211 86.2256 125)" fill="white"/>
</clipPath>
<clipPath id="clip7">
<rect x="42" y="26" width="55" height="35" fill="white"/>
</clipPath>
<clipPath id="clip8">
<rect x="57.0942" y="128.124" width="64.4335" height="40.9101" transform="rotate(15.7352 57.0942 128.124)" fill="white"/>
</clipPath>
<clipPath id="clip9">
<rect width="188.6" height="188.6" fill="white"/>
</clipPath>
</defs>
</svg>
