<svg width="96" height="102" viewBox="0 0 96 102" fill="none" xmlns="http://www.w3.org/2000/svg">
<g clip-path="url(#clip0)">
<path fill-rule="evenodd" clip-rule="evenodd" d="M8.90147 84.2317L9.20334 65.3023L24.7313 54.4717L24.0837 73.2173L8.90147 84.2317Z" fill="#FBF063"/>
<path fill-rule="evenodd" clip-rule="evenodd" d="M24.0828 73.2156L8.90143 84.2318L27.6848 94.223L43.1149 83.3377L24.0828 73.2156Z" fill="#F29C1F"/>
<path fill-rule="evenodd" clip-rule="evenodd" d="M43.1138 83.3398L43.5157 64.4609L24.7323 54.4697L24.0828 73.2156L43.1138 83.3398Z" fill="#F0C419"/>
<path opacity="0.5" fill-rule="evenodd" clip-rule="evenodd" d="M9.02688 75.4036L24.3801 64.4824L24.4143 63.4959L9.04247 74.4303L9.02688 75.4036Z" fill="#F29C1F"/>
<path opacity="0.5" fill-rule="evenodd" clip-rule="evenodd" d="M9.00184 77.9286L24.2839 67.4192L24.5248 60.4486L9.10351 71.5586L9.00184 77.9286Z" fill="white"/>
<path opacity="0.5" fill-rule="evenodd" clip-rule="evenodd" d="M24.2861 67.415L24.5218 60.4468L28.3283 62.4716L28.4384 69.6236L24.2861 67.415Z" fill="white"/>
</g>
<path fill-rule="evenodd" clip-rule="evenodd" d="M66.6099 22.06L76.4999 17L86.3899 22.06L76.4999 26.8902L66.6099 22.06Z" fill="#FBF063"/>
<path fill-rule="evenodd" clip-rule="evenodd" d="M76.5006 26.8894L66.6099 22.0601V34.5445L76.5013 39.5387L76.5006 26.8894Z" fill="#F29C1F"/>
<path fill-rule="evenodd" clip-rule="evenodd" d="M76.5 39.5387L86.3914 34.5445V22.0601L76.5007 26.8894L76.5 39.5387Z" fill="#F0C419"/>
<path opacity="0.5" fill-rule="evenodd" clip-rule="evenodd" d="M71.2181 19.6921L81.107 24.6367L81.6275 24.3825L71.7267 19.432L71.2181 19.6921Z" fill="#F29C1F"/>
<path opacity="0.5" fill-rule="evenodd" clip-rule="evenodd" d="M69.9032 20.3751L79.5591 25.3962L83.2368 23.6001L73.2313 18.6724L69.9032 20.3751Z" fill="white"/>
<path opacity="0.5" fill-rule="evenodd" clip-rule="evenodd" d="M79.5618 25.3962L83.2368 23.598V26.128L79.5618 28.1559V25.3962Z" fill="white"/>
<path fill-rule="evenodd" clip-rule="evenodd" d="M41.05 42.3L47.5 39L53.95 42.3L47.5 45.4502L41.05 42.3Z" fill="#FBF063"/>
<path fill-rule="evenodd" clip-rule="evenodd" d="M47.5004 45.4496L41.05 42.3V50.442L47.5009 53.6992L47.5004 45.4496Z" fill="#F29C1F"/>
<path fill-rule="evenodd" clip-rule="evenodd" d="M47.5 53.6992L53.9509 50.442V42.3L47.5004 45.4496L47.5 53.6992Z" fill="#F0C419"/>
<path opacity="0.5" fill-rule="evenodd" clip-rule="evenodd" d="M44.0552 40.7558L50.5045 43.9805L50.8439 43.8148L44.3869 40.5862L44.0552 40.7558Z" fill="#F29C1F"/>
<path opacity="0.5" fill-rule="evenodd" clip-rule="evenodd" d="M43.1977 41.2011L49.495 44.4758L51.8935 43.3044L45.3682 40.0907L43.1977 41.2011Z" fill="white"/>
<path opacity="0.5" fill-rule="evenodd" clip-rule="evenodd" d="M49.4968 44.4758L51.8935 43.3031V44.9531L49.4968 46.2757V44.4758Z" fill="white"/>
<g clip-path="url(#clip1)">
<path fill-rule="evenodd" clip-rule="evenodd" d="M11.4263 38.7655L1.51311 22.5988L8.82388 5.10049L18.346 21.2975L11.4263 38.7655Z" fill="#FBF063"/>
<path fill-rule="evenodd" clip-rule="evenodd" d="M18.3443 21.2965L11.4263 38.7656L32.6744 37.1231L39.873 19.6311L18.3443 21.2965Z" fill="#F29C1F"/>
<path fill-rule="evenodd" clip-rule="evenodd" d="M39.8733 19.6335L30.0718 3.45568L8.82372 5.09824L18.3444 21.2965L39.8733 19.6335Z" fill="#F0C419"/>
<path opacity="0.5" fill-rule="evenodd" clip-rule="evenodd" d="M6.79009 31.2341L13.9045 13.753L13.4035 12.9006L6.28044 30.4028L6.79009 31.2341Z" fill="#F29C1F"/>
<path opacity="0.5" fill-rule="evenodd" clip-rule="evenodd" d="M8.12529 33.3824L15.4007 16.2878L11.86 10.2647L4.78948 27.9421L8.12529 33.3824Z" fill="white"/>
<path opacity="0.5" fill-rule="evenodd" clip-rule="evenodd" d="M15.4002 16.283L11.8563 10.2649L16.1623 9.93201L20.0973 15.9198L15.4002 16.283Z" fill="white"/>
</g>
<g clip-path="url(#clip2)">
<path fill-rule="evenodd" clip-rule="evenodd" d="M58.1091 62.152L74.7031 52.7972L91.9985 60.7811L75.3886 69.7423L58.1091 62.152Z" fill="#FBF063"/>
<path fill-rule="evenodd" clip-rule="evenodd" d="M75.3897 69.7406L58.1091 62.152L58.9745 83.5417L76.2677 91.4128L75.3897 69.7406Z" fill="#F29C1F"/>
<path fill-rule="evenodd" clip-rule="evenodd" d="M76.2653 91.413L92.8662 82.1707L92.0009 60.781L75.3897 69.7406L76.2653 91.413Z" fill="#F0C419"/>
<path opacity="0.5" fill-rule="evenodd" clip-rule="evenodd" d="M65.8404 57.7758L83.1258 65.5619L84 65.0904L66.6936 57.2948L65.8404 57.7758Z" fill="#F29C1F"/>
<path opacity="0.5" fill-rule="evenodd" clip-rule="evenodd" d="M63.6347 59.0369L80.5263 66.9704L86.7028 63.6382L69.2188 55.889L63.6347 59.0369Z" fill="white"/>
<path opacity="0.5" fill-rule="evenodd" clip-rule="evenodd" d="M80.5309 66.9702L86.7026 63.6347L86.878 67.9694L80.7222 71.6985L80.5309 66.9702Z" fill="white"/>
</g>
<defs>
<clipPath id="clip0">
<rect y="82.6046" width="39.1955" height="39.1955" transform="rotate(-61.9908 0 82.6046)" fill="white"/>
</clipPath>
<clipPath id="clip1">
<rect x="3.02612" y="42.1715" width="39.2622" height="39.2622" transform="rotate(-94.4204 3.02612 42.1715)" fill="white"/>
</clipPath>
<clipPath id="clip2">
<rect x="55" y="53.5942" width="39.4385" height="39.4385" transform="rotate(-2.31664 55 53.5942)" fill="white"/>
</clipPath>
</defs>
</svg>
