<svg width="235" height="229" viewBox="0 0 235 229" fill="none" xmlns="http://www.w3.org/2000/svg">
<path d="M136.797 85.498L139.657 80.228C139.657 80.228 134.135 79.241 131.803 77.943C130.134 76.9596 128.542 75.8504 127.042 74.625L124.642 79.875C126.18 81.5885 128.051 82.9707 130.141 83.9375C132.231 84.9042 134.495 85.4352 136.797 85.498Z" fill="#39B5A9"/>
<path d="M127.2 75.291C128.591 76.4034 130.061 77.4121 131.6 78.309C133.543 79.391 137.523 80.24 139.013 80.533L136.555 85.061C134.863 84.9524 133.195 84.6085 131.598 84.039C130.293 83.5699 129.051 82.9429 127.898 82.172C126.882 81.5047 125.956 80.7103 125.142 79.808L127.2 75.291Z" fill="#98E5DC"/>
<path d="M130.616 83.284C130.166 83.1793 129.76 82.937 129.454 82.5908C129.148 82.2446 128.957 81.8116 128.908 81.3521C128.86 80.8926 128.955 80.4294 129.182 80.0267C129.409 79.6241 129.755 79.3021 130.173 79.1054C130.592 78.9087 131.061 78.8472 131.515 78.9293C131.97 79.0115 132.388 79.2332 132.711 79.5637C133.034 79.8942 133.246 80.3171 133.317 80.7736C133.389 81.2301 133.316 81.6976 133.11 82.111C132.929 82.5927 132.567 82.9847 132.101 83.2038C131.635 83.4228 131.103 83.4516 130.616 83.284Z" fill="#39B5A9"/>
<path d="M135.756 84.543L137.731 80.854L138.288 80.987L136.276 84.673L135.756 84.543Z" fill="#39B5A9"/>
<path d="M125.654 79.802L127.479 76.084L127.948 76.367L126.086 80.141L125.654 79.802Z" fill="#39B5A9"/>
<path d="M131.484 81.7797C131.428 81.9089 131.525 81.9916 131.616 82.0598L131.548 82.2155C131.505 82.19 131.464 82.1536 131.429 82.1067L131.334 82.1994C131.37 82.2534 131.429 82.3009 131.495 82.3364L131.452 82.4363L131.543 82.4763L131.588 82.3746C131.74 82.4213 131.847 82.3688 131.889 82.2717C131.946 82.1407 131.847 82.0572 131.756 81.988L131.823 81.8351C131.886 81.8703 131.942 81.9238 131.973 81.9777L132.072 81.888C132.039 81.8266 131.964 81.7602 131.876 81.7151L131.919 81.6152L131.828 81.5752L131.783 81.6778C131.631 81.6324 131.526 81.6845 131.484 81.7797ZM131.738 82.2146C131.725 82.2448 131.694 82.263 131.641 82.2528L131.698 82.1227C131.732 82.1531 131.752 82.1825 131.738 82.2146ZM131.73 81.7987L131.675 81.9251C131.641 81.8942 131.622 81.8652 131.636 81.8331C131.649 81.8038 131.68 81.7888 131.73 81.7987Z" fill="#98E5DC"/>
<path d="M37.246 105.9L37.709 114.773C37.709 114.773 45.45 111.748 49.403 111.585C52.2735 111.536 55.1434 111.707 57.988 112.095L56.955 103.606C56.955 103.606 47.901 100.137 37.246 105.9Z" fill="#39B5A9"/>
<path d="M57.2699 111.373C54.6526 111.042 52.0145 110.905 49.377 110.961C46.085 111.096 40.3969 113.102 38.2879 113.885L37.8879 106.264C40.1104 105.093 42.4852 104.237 44.9439 103.722C46.9566 103.304 49.0129 103.134 51.0669 103.216C52.8668 103.274 54.652 103.561 56.3789 104.072L57.2699 111.373Z" fill="#98E5DC"/>
<path d="M46.77 103.915C48.162 103.795 49.414 105.127 49.57 106.891C49.726 108.655 48.7169 110.182 47.3249 110.302C45.9329 110.422 44.681 109.09 44.525 107.326C44.369 105.562 45.377 104.036 46.77 103.915Z" fill="#39B5A9"/>
<path d="M39.303 106.301L39.661 112.491L38.855 112.754L38.547 106.539L39.303 106.301Z" fill="#39B5A9"/>
<path d="M55.735 104.482L56.304 110.593L55.493 110.598L54.927 104.387L55.735 104.482Z" fill="#39B5A9"/>
<path d="M46.4734 106.098C46.4541 105.958 46.3281 105.939 46.2146 105.928L46.1913 105.759C46.2417 105.759 46.2955 105.768 46.35 105.79L46.3827 105.661C46.3234 105.634 46.2484 105.624 46.1732 105.629L46.1583 105.521L46.0592 105.534L46.0744 105.644C45.9203 105.684 45.8564 105.785 45.871 105.89C45.8905 106.031 46.0185 106.051 46.1322 106.063L46.1551 106.228C46.0828 106.231 46.0077 106.214 45.9531 106.184L45.9153 106.313C45.9757 106.348 46.0741 106.365 46.173 106.358L46.188 106.466L46.2871 106.452L46.2717 106.341C46.4247 106.301 46.4877 106.201 46.4734 106.098ZM46.0294 105.86C46.0249 105.827 46.0417 105.795 46.0926 105.776L46.1121 105.917C46.0665 105.909 46.0342 105.894 46.0294 105.86ZM46.2536 106.21L46.2347 106.074C46.2794 106.083 46.3107 106.097 46.3155 106.132C46.3199 106.164 46.3017 106.193 46.2536 106.21Z" fill="#98E5DC"/>
<path d="M147.435 146.496L153.43 146.578C153.43 146.578 151.737 141.23 151.801 138.562C151.896 136.627 152.138 134.702 152.525 132.804L146.761 133.12C145.959 135.279 145.606 137.578 145.721 139.877C145.837 142.177 146.42 144.429 147.435 146.496Z" fill="#39B5A9"/>
<path d="M152.009 133.253C151.671 135.002 151.462 136.773 151.383 138.552C151.328 140.775 152.427 144.694 152.861 146.149L147.709 146.078C147.019 144.53 146.547 142.893 146.309 141.215C146.118 139.841 146.095 138.45 146.242 137.071C146.36 135.861 146.633 134.672 147.053 133.532L152.009 133.253Z" fill="#98E5DC"/>
<path d="M146.521 139.994C146.404 139.547 146.43 139.075 146.594 138.643C146.758 138.211 147.053 137.841 147.437 137.584C147.822 137.327 148.276 137.197 148.738 137.21C149.2 137.224 149.646 137.381 150.015 137.659C150.383 137.938 150.656 138.325 150.794 138.766C150.933 139.206 150.931 139.679 150.789 140.119C150.646 140.559 150.37 140.943 149.999 141.218C149.629 141.494 149.181 141.647 148.719 141.657C148.208 141.72 147.693 141.582 147.282 141.272C146.872 140.961 146.599 140.503 146.521 139.994Z" fill="#39B5A9"/>
<path d="M147.796 145.13L151.98 145.163L152.122 145.718L147.923 145.651L147.796 145.13Z" fill="#39B5A9"/>
<path d="M147.296 133.982L151.437 133.869L151.404 134.416L147.197 134.522L147.296 133.982Z" fill="#39B5A9"/>
<path d="M148.256 140.063C148.116 140.074 148.088 140.198 148.07 140.31L147.9 140.323C147.903 140.272 147.916 140.219 147.941 140.166L147.815 140.125C147.784 140.183 147.769 140.257 147.769 140.332L147.66 140.34L147.667 140.44L147.778 140.432C147.807 140.588 147.903 140.658 148.009 140.65C148.152 140.64 148.18 140.514 148.199 140.401L148.365 140.389C148.363 140.462 148.341 140.535 148.308 140.588L148.434 140.634C148.473 140.576 148.497 140.479 148.496 140.38L148.604 140.372L148.597 140.272L148.485 140.28C148.455 140.125 148.36 140.056 148.256 140.063ZM147.989 140.491C147.957 140.493 147.926 140.474 147.91 140.422L148.052 140.412C148.041 140.457 148.024 140.488 147.989 140.491ZM148.354 140.29L148.216 140.3C148.228 140.256 148.245 140.226 148.28 140.223C148.312 140.221 148.339 140.241 148.354 140.29Z" fill="#98E5DC"/>
<path d="M83.0849 67.8465L75.4446 72.382C75.4446 72.382 81.722 77.8289 83.7043 81.2528C85.082 83.7715 86.2655 86.3917 87.2445 89.0905L94.2797 84.2289C94.2797 84.2289 93.1412 74.6001 83.0849 67.8465Z" fill="#39B5A9"/>
<path d="M87.5498 88.1191C86.6255 85.6481 85.5208 83.2485 84.2446 80.9396C82.5944 78.0879 78.1737 73.9848 76.4999 72.4817L83.061 68.5841C85.1312 70.0071 86.9929 71.7118 88.5923 73.6491C89.8982 75.2366 91.0047 76.9781 91.8872 78.8347C92.673 80.455 93.2483 82.1692 93.5993 83.9355L87.5498 88.1191Z" fill="#98E5DC"/>
<path d="M89.2705 75.3555C90.024 76.5321 89.4269 78.2599 87.9377 79.2182C86.4485 80.1765 84.6275 79.9931 83.874 78.8166C83.1205 77.64 83.7177 75.9122 85.2069 74.9539C86.696 73.9956 88.5157 74.1785 89.2705 75.3555Z" fill="#39B5A9"/>
<path d="M83.6862 69.8541L78.3725 73.0492L77.7649 72.4579L83.124 69.2955L83.6862 69.8541Z" fill="#39B5A9"/>
<path d="M92.937 83.556L87.7913 86.9012L87.4098 86.1855L92.6454 82.7965L92.937 83.556Z" fill="#39B5A9"/>
<path d="M87.1997 76.108C87.3144 76.0259 87.2735 75.9051 87.23 75.7997L87.3683 75.7007C87.3926 75.7449 87.409 75.7971 87.4151 75.8555L87.5443 75.8246C87.5407 75.7595 87.5145 75.6884 87.4757 75.6239L87.5644 75.5604L87.5062 75.4791L87.4159 75.5437C87.3093 75.4256 87.1904 75.4159 87.1042 75.4776C86.9878 75.5609 87.0299 75.6833 87.0725 75.7893L86.9367 75.8865C86.9005 75.8239 86.8805 75.7496 86.8815 75.6874L86.7502 75.7136C86.7473 75.7834 86.7773 75.8787 86.8301 75.9628L86.7414 76.0262L86.7996 76.1076L86.8907 76.0424C86.9976 76.1591 87.115 76.1685 87.1997 76.108ZM87.2044 75.604C87.2313 75.5848 87.2671 75.585 87.3077 75.6211L87.1922 75.7038C87.1779 75.6598 87.1759 75.6243 87.2044 75.604ZM86.9981 75.9656L87.1104 75.8852C87.1232 75.929 87.1247 75.9636 87.0962 75.984C87.0701 76.0026 87.0362 75.9998 86.9981 75.9656Z" fill="#98E5DC"/>
<path d="M90.3642 142.406L88.9585 148.235C88.9585 148.235 94.5484 147.766 97.136 148.42C99.0021 148.94 100.826 149.601 102.591 150.399L103.558 144.708C101.63 143.448 99.466 142.595 97.1978 142.199C94.9295 141.804 92.6043 141.874 90.3642 142.406Z" fill="#39B5A9"/>
<path d="M102.267 149.796C100.636 149.08 98.9557 148.484 97.2379 148.014C95.0818 147.469 91.0174 147.674 89.5022 147.775L90.7106 142.766C92.3733 142.435 94.074 142.338 95.7636 142.477C97.1452 142.594 98.5074 142.879 99.8197 143.327C100.973 143.71 102.073 144.239 103.092 144.901L102.267 149.796Z" fill="#98E5DC"/>
<path d="M96.9069 142.953C97.3687 142.938 97.8237 143.068 98.2086 143.323C98.5935 143.579 98.8892 143.948 99.0546 144.38C99.22 144.811 99.2469 145.284 99.1315 145.731C99.0162 146.178 98.7644 146.579 98.411 146.877C98.0577 147.174 97.6204 147.355 97.1598 147.392C96.6993 147.43 96.2384 147.324 95.8412 147.087C95.4441 146.851 95.1303 146.497 94.9436 146.075C94.7569 145.652 94.7065 145.182 94.7993 144.729C94.8504 144.217 95.0991 143.745 95.4927 143.413C95.8862 143.082 96.3935 142.916 96.9069 142.953Z" fill="#39B5A9"/>
<path d="M91.6161 143.061L90.6582 147.134L90.0858 147.149L91.0802 143.069L91.6161 143.061Z" fill="#39B5A9"/>
<path d="M102.598 145.039L101.793 149.102L101.267 148.949L102.094 144.823L102.598 145.039Z" fill="#39B5A9"/>
<path d="M96.4555 144.63C96.4767 144.491 96.3618 144.436 96.256 144.394L96.2816 144.226C96.3301 144.239 96.3789 144.264 96.4249 144.3L96.4929 144.186C96.4438 144.143 96.3747 144.112 96.3014 144.095L96.3178 143.987L96.219 143.972L96.2023 144.082C96.0435 144.076 95.9537 144.154 95.9378 144.259C95.9162 144.4 96.0332 144.456 96.1388 144.499L96.1137 144.664C96.0436 144.646 95.9765 144.609 95.9327 144.565L95.86 144.677C95.9078 144.728 95.997 144.773 96.094 144.793L96.0776 144.901L96.1764 144.916L96.1932 144.806C96.3512 144.81 96.4399 144.733 96.4555 144.63ZM96.0981 144.275C96.103 144.243 96.1281 144.217 96.1823 144.213L96.1609 144.354C96.1196 144.333 96.0928 144.31 96.0981 144.275ZM96.2131 144.675L96.2339 144.539C96.2741 144.56 96.2999 144.583 96.2946 144.618C96.2898 144.649 96.2642 144.672 96.2131 144.675Z" fill="#98E5DC"/>
<path d="M181.298 97.045L178.565 88.5908C178.565 88.5908 171.865 93.5081 168.087 94.684C165.326 95.4705 162.509 96.0452 159.66 96.403L162.846 104.339C162.846 104.339 172.488 105.359 181.298 97.045Z" fill="#39B5A9"/>
<path d="M160.54 96.9157C163.154 96.5608 165.739 96.0142 168.273 95.2803C171.419 94.3017 176.398 90.8979 178.234 89.598L180.584 96.8587C178.739 98.5629 176.664 100.001 174.421 101.133C172.584 102.055 170.641 102.749 168.635 103.199C166.881 103.607 165.082 103.789 163.282 103.741L160.54 96.9157Z" fill="#98E5DC"/>
<path d="M172.607 101.417C171.293 101.891 169.74 100.927 169.135 99.2625C168.53 97.5983 169.111 95.8629 170.425 95.3883C171.739 94.9137 173.292 95.8782 173.898 97.5424C174.503 99.2067 173.922 100.941 172.607 101.417Z" fill="#39B5A9"/>
<path d="M179.207 97.1874L177.267 91.2986L177.978 90.8369L179.877 96.7627L179.207 97.1874Z" fill="#39B5A9"/>
<path d="M163.799 103.179L161.675 97.4204L162.457 97.2066L164.604 103.062L163.799 103.179Z" fill="#39B5A9"/>
<path d="M172.331 99.2307C172.386 99.3608 172.513 99.3476 172.625 99.3285L172.691 99.4853C172.643 99.4992 172.588 99.5036 172.53 99.4967L172.531 99.6295C172.596 99.6404 172.671 99.6306 172.742 99.607L172.785 99.7076L172.877 99.6688L172.834 99.5664C172.972 99.4886 173.008 99.3748 172.967 99.277C172.912 99.1452 172.783 99.1591 172.67 99.1772L172.605 99.0232C172.675 99.0018 172.751 98.9988 172.812 99.0135L172.815 98.8797C172.748 98.8613 172.648 98.8696 172.555 98.9024L172.512 98.8019L172.42 98.8407L172.464 98.944C172.326 99.0223 172.291 99.1348 172.331 99.2307ZM172.822 99.3468C172.835 99.3773 172.826 99.4122 172.782 99.4438L172.727 99.3128C172.773 99.3087 172.808 99.3146 172.822 99.3468ZM172.515 99.0657L172.568 99.193C172.523 99.1958 172.489 99.1895 172.475 99.1572C172.463 99.1277 172.473 99.0952 172.515 99.0657Z" fill="#98E5DC"/>
<g clip-path="url(#clip0)">
<path d="M114.386 162.012L116.44 164.759C116.07 165.677 115.4 166.443 114.54 166.933L112.084 163.772L114.386 162.012Z" fill="#FDA893"/>
<path d="M114.88 166.085C114.88 166.085 113.919 165.878 113.59 166.21C113.261 166.542 112.436 171.062 111.664 172.05C110.892 173.038 111.669 173.564 112.144 173.764C112.619 173.964 119.427 167.164 119.427 167.164C118.715 166.138 117.877 165.205 116.933 164.387C116.122 163.933 115.742 165.604 114.88 166.085Z" fill="#00888B"/>
<path d="M101.784 166.729L101.472 170.145C100.584 170.581 99.5746 170.703 98.608 170.493L98.897 166.5L101.784 166.729Z" fill="#FDA893"/>
<path d="M99.231 170.014C99.231 170.014 98.631 169.182 98.143 169.214C97.655 169.246 93.86 172.172 92.57 172.4C91.28 172.628 91.5169 173.578 91.7459 174.066C91.9749 174.554 101.956 174.274 101.956 174.274C102.141 172.902 102.159 171.512 102.01 170.135C101.695 169.214 100.233 170.244 99.231 170.014Z" fill="#00888B"/>
<path d="M103.698 129.655L105.772 146.823C107.097 148.668 108.31 150.59 109.407 152.579C110.896 155.291 114.864 162.328 114.864 162.328L112.464 164.158L99.32 150.538L96.576 128.332L103.698 129.655Z" fill="#56555A"/>
<path d="M111.873 164.116C112.099 164.627 112.48 165.053 112.962 165.335L115.749 162.982C115.518 162.495 115.196 162.058 114.799 161.693L111.873 164.116Z" fill="#56555A"/>
<path d="M112.117 129.646C112.117 129.646 110.611 139.461 105.801 146.558C105.441 150.132 104.789 153.671 103.854 157.14C103.316 158.75 102.274 166.376 102.274 166.376L98.625 166.21L99.96 145.696L103.427 129.646H112.117Z" fill="#78777E"/>
<path d="M98.286 166.085C98.0861 166.7 98.0861 167.363 98.286 167.979L102.509 168.097C102.685 167.498 102.744 166.872 102.683 166.251L98.286 166.085Z" fill="#78777E"/>
<path d="M99.846 99.1119C99.846 99.1119 96.577 106.539 94.91 109.182C94.91 109.182 93.922 109.75 89.351 112.214C87.733 113.086 87.144 113.44 87.144 113.44L86.963 116.171C86.963 116.171 96.499 114.403 98.911 112.662C99.9794 109.814 100.71 106.851 101.089 103.833L99.846 99.1119Z" fill="#878787"/>
<path d="M112.679 130.821L112.936 118.547L114.665 100.059L110.435 98.611L110.208 98.533L109.259 98.208L105.759 98.721L104.034 98.55L103.306 98.65L103.049 98.684L99.8489 99.113L96.0389 129.791L112.679 130.821Z" fill="#9B97AF"/>
<path d="M106.11 88.9699C106.11 88.9699 107.35 88.5789 106.81 86.6699C107.683 86.8517 108.582 86.8659 109.46 86.7119C110.242 86.4049 110.642 83.745 109.816 82.812C108.99 81.879 109.194 83.2559 109.194 83.2559C109.194 83.2559 105.679 81.9299 104.261 81.9939C102.843 82.0579 101.849 84.4619 101.861 85.3619C101.861 85.3619 101.573 84.7089 101.112 84.7439C100.651 84.7789 101.344 85.6939 101.344 85.6939C100.932 85.9369 100.622 86.3205 100.471 86.7739C100.371 87.3739 102.426 90.0899 103.098 91.4539L103.118 91.4989C103.265 91.8369 103.654 92.1189 103.936 91.8689C104.123 91.7077 104.269 91.5033 104.359 91.2733C104.45 91.0433 104.483 90.7947 104.456 90.549C104.456 90.549 103.785 89.282 104.422 88.965C104.422 88.965 104.845 88.571 105.322 89.465C105.393 89.7563 105.42 90.0566 105.402 90.3559C105.229 91.332 105.321 92.3367 105.669 93.2649C106.21 94.7209 107.769 94.4849 108.312 94.5449C108.855 94.6049 109.512 94.4299 109.574 93.8729C109.636 93.3159 109.774 92.0589 109.791 91.8729C109.808 91.6869 109.743 91.5599 109.691 91.5559C109.691 91.5559 108.785 91.5059 108.131 91.5029C107.477 91.4999 107.006 91.5399 106.648 91.1649C106.445 90.9937 106.281 90.7803 106.169 90.5396C106.056 90.2989 105.997 90.0367 105.996 89.771C105.986 89.4993 106.025 89.228 106.11 88.9699Z" fill="#101537"/>
<path d="M111.447 89.3819C111.447 92.3199 109.638 94.3449 106.7 94.3449C106.03 94.3614 105.363 94.2394 104.742 93.9865C104.121 93.7336 103.559 93.3553 103.091 92.8752C102.623 92.395 102.259 91.8234 102.022 91.1962C101.785 90.569 101.68 89.8996 101.714 89.2299C101.714 86.2919 103.454 84.0659 106.392 84.0659C109.912 84.0659 111.447 86.4439 111.447 89.3819Z" fill="#101537"/>
<path d="M110.782 90.6469C110.782 90.6469 111.598 89.5589 112.205 90.4589C112.812 91.3589 111.954 94.0169 110.468 93.3679L110.782 90.6469Z" fill="#FD896B"/>
<path d="M110.793 92.5459C110.82 92.5458 110.847 92.5368 110.869 92.5202C110.891 92.5036 110.907 92.4803 110.914 92.4539C111.004 92.1952 111.147 91.9583 111.335 91.7589C111.522 91.5595 111.75 91.402 112.003 91.2969C112.032 91.2835 112.054 91.2596 112.066 91.2302C112.078 91.2007 112.079 91.1679 112.067 91.1381C112.056 91.1084 112.034 91.084 112.006 91.0699C111.977 91.0558 111.944 91.0529 111.914 91.0619C111.623 91.1795 111.362 91.3588 111.147 91.5874C110.933 91.816 110.771 92.0884 110.672 92.3859C110.663 92.418 110.667 92.4523 110.683 92.4814C110.7 92.5104 110.727 92.5318 110.759 92.5409C110.77 92.5441 110.781 92.5458 110.793 92.5459Z" fill="#D65C48"/>
<path d="M111.649 92.1329C111.672 92.1329 111.694 92.1268 111.713 92.1153C111.733 92.1037 111.749 92.0872 111.759 92.0674C111.77 92.0475 111.776 92.0251 111.775 92.0025C111.774 91.9799 111.767 91.958 111.755 91.9389C111.635 91.7721 111.472 91.6408 111.283 91.5589C111.254 91.5504 111.222 91.5529 111.194 91.5659C111.167 91.5789 111.145 91.6015 111.132 91.6295C111.12 91.6576 111.119 91.6891 111.128 91.7182C111.137 91.7474 111.157 91.7722 111.183 91.7879C111.327 91.8506 111.452 91.9495 111.546 92.0749C111.557 92.0923 111.572 92.1067 111.59 92.1168C111.608 92.1269 111.628 92.1324 111.649 92.1329Z" fill="#D65C48"/>
<path d="M102.37 90.6469C102.37 90.6469 101.554 89.5589 100.947 90.4589C100.34 91.3589 101.198 94.0169 102.684 93.3679L102.37 90.6469Z" fill="#FD896B"/>
<path d="M102.36 92.5459C102.333 92.5458 102.306 92.5368 102.284 92.5202C102.262 92.5036 102.246 92.4803 102.239 92.4539C102.149 92.1952 102.006 91.9583 101.818 91.7589C101.631 91.5595 101.403 91.402 101.15 91.2969C101.121 91.2835 101.099 91.2596 101.087 91.2302C101.075 91.2007 101.074 91.1679 101.086 91.1381C101.097 91.1084 101.119 91.084 101.147 91.0699C101.176 91.0558 101.209 91.0529 101.239 91.0619C101.53 91.1795 101.791 91.3588 102.006 91.5874C102.22 91.816 102.382 92.0884 102.481 92.3859C102.486 92.4046 102.487 92.4243 102.484 92.4434C102.48 92.4624 102.472 92.4804 102.46 92.4959C102.448 92.5114 102.433 92.524 102.416 92.5326C102.399 92.5413 102.379 92.5459 102.36 92.5459Z" fill="#D65C48"/>
<path d="M101.501 92.1329C101.477 92.1331 101.453 92.1261 101.433 92.1129C101.419 92.1041 101.407 92.0926 101.397 92.079C101.388 92.0654 101.381 92.0501 101.378 92.0339C101.374 92.0177 101.374 92.001 101.377 91.9847C101.38 91.9684 101.386 91.9528 101.395 91.9389C101.515 91.7722 101.678 91.6409 101.866 91.5589C101.895 91.5504 101.927 91.5529 101.955 91.5659C101.982 91.5789 102.004 91.6015 102.017 91.6295C102.029 91.6576 102.03 91.6891 102.021 91.7182C102.012 91.7474 101.992 91.7722 101.966 91.7879C101.822 91.8503 101.697 91.9493 101.603 92.0749C101.592 92.0922 101.577 92.1064 101.559 92.1165C101.541 92.1266 101.521 92.1323 101.501 92.1329Z" fill="#D65C48"/>
<path d="M104.562 95.6219V98.422C104.714 98.7409 104.939 99.0197 105.218 99.2358C105.498 99.4519 105.824 99.5993 106.171 99.666C107.236 99.759 108.428 98.548 108.428 98.548V95.812L104.562 95.6219Z" fill="#FDA893"/>
<path d="M104.562 95.6219V96.795C105.278 97.589 106.548 97.787 108.428 97.509V95.809L104.562 95.6219Z" fill="#FD896B"/>
<path d="M111.215 90.5969C111.204 90.7499 111.192 90.9049 111.177 91.0619C111.137 91.4559 111.084 91.8619 111.012 92.2619C111.012 92.2759 111.012 92.2899 111.005 92.3019C110.65 94.2519 109.852 96.1679 108.132 96.7819C104.232 98.1729 102.845 94.8319 102.288 92.8819C102.227 92.6659 102.171 92.4259 102.122 92.1689C102.122 92.1589 102.122 92.1479 102.116 92.1369C102.062 91.8489 102.016 91.5369 101.976 91.2249C101.946 90.9909 101.921 90.7529 101.898 90.5129C101.841 89.9309 101.804 89.3469 101.78 88.8289C101.752 88.2507 101.907 87.6784 102.223 87.1936C102.539 86.7087 103.001 86.3361 103.541 86.1289C104.543 85.689 105.631 85.4786 106.725 85.5132C107.819 85.5478 108.892 85.8265 109.864 86.3289C110.281 86.5649 110.63 86.9055 110.875 87.3173C111.121 87.729 111.255 88.1976 111.264 88.6769C111.275 89.2249 111.267 89.8869 111.215 90.5969Z" fill="#FDA893"/>
<path d="M110.736 90.6729C110.527 91.5343 110.27 92.3834 109.966 93.2159C109.108 92.3209 106.576 93.2209 106.576 93.2209C106.576 93.2209 103.736 92.1909 103.225 93.4379C102.868 92.5488 102.619 91.6202 102.482 90.6719L101.898 90.5199C101.92 90.7599 101.946 90.9979 101.976 91.2319C102.016 91.5479 102.062 91.8559 102.117 92.1439C102.117 92.1559 102.117 92.1659 102.123 92.1759C102.171 92.4329 102.223 92.6759 102.289 92.8889C102.846 94.8369 104.237 98.1769 108.133 96.7889C109.853 96.1749 110.651 94.2589 111.006 92.3089C111.006 92.2969 111.006 92.2829 111.013 92.2689C111.085 91.8689 111.139 91.4619 111.178 91.0689C111.193 90.9119 111.206 90.7569 111.216 90.6039L110.736 90.6729ZM108.91 94.9049C108.458 95.2283 107.944 95.4549 107.401 95.5706C106.857 95.6862 106.295 95.6884 105.751 95.5769C105.08 95.4072 104.475 95.0429 104.01 94.5299C104.11 93.9249 104.61 93.4019 106.658 93.6819C109.133 93.0559 109.015 94.4299 108.91 94.9009V94.9049Z" fill="#101537"/>
<path d="M107.901 90.8019C107.901 91.0839 108.046 91.3129 108.226 91.3129C108.406 91.3129 108.551 91.0839 108.551 90.8019C108.551 90.5199 108.405 90.2909 108.226 90.2909C108.047 90.2909 107.901 90.5199 107.901 90.8019Z" fill="#0C375A"/>
<path d="M104.132 90.8019C104.132 91.0839 104.278 91.3129 104.457 91.3129C104.636 91.3129 104.782 91.0839 104.782 90.8019C104.782 90.5199 104.637 90.2909 104.457 90.2909C104.277 90.2909 104.132 90.5199 104.132 90.8019Z" fill="#0C375A"/>
<path d="M103.537 89.0479C104.117 88.8227 104.756 88.8002 105.351 88.9839L105.272 89.4229C104.688 89.3676 104.098 89.4147 103.53 89.5619C103.473 89.395 103.475 89.2133 103.537 89.0479Z" fill="#0C375A"/>
<path d="M109.509 89.0479C108.929 88.8225 108.29 88.8 107.695 88.9839L107.774 89.4229C108.358 89.3677 108.948 89.4147 109.516 89.5619C109.573 89.395 109.571 89.2133 109.509 89.0479Z" fill="#0C375A"/>
<path d="M106.449 93.018C106.604 93.0317 106.761 93.0182 106.912 92.978C106.941 92.9669 106.965 92.9453 106.98 92.9173C106.994 92.8894 106.997 92.8572 106.989 92.827C106.981 92.7968 106.961 92.7707 106.935 92.7539C106.909 92.7371 106.877 92.7307 106.846 92.736C106.681 92.79 106.502 92.7851 106.34 92.722C106.322 92.7072 106.309 92.6881 106.301 92.6666C106.292 92.6451 106.29 92.6218 106.293 92.599C106.364 91.9608 106.467 91.3266 106.602 90.699C106.607 90.6823 106.608 90.6648 106.606 90.6475C106.604 90.6303 106.598 90.6137 106.589 90.5989C106.58 90.584 106.568 90.5711 106.554 90.561C106.54 90.551 106.524 90.544 106.507 90.5405C106.49 90.5369 106.472 90.537 106.455 90.5406C106.438 90.5441 106.422 90.5512 106.408 90.5613C106.394 90.5714 106.382 90.5843 106.373 90.5992C106.364 90.6141 106.358 90.6307 106.356 90.648C106.217 91.2907 106.112 91.9402 106.042 92.594C106.038 92.6559 106.049 92.718 106.074 92.7747C106.099 92.8315 106.137 92.8814 106.186 92.92C106.263 92.9756 106.354 93.0094 106.449 93.018Z" fill="#FD896B"/>
<path d="M108.166 93.771C108.129 94.1691 107.946 94.5394 107.651 94.8102C107.357 95.081 106.973 95.233 106.573 95.237C106.17 95.2452 105.78 95.097 105.485 94.8237C105.189 94.5503 105.011 94.173 104.987 93.771H108.166Z" fill="white"/>
<path d="M101.875 91.313H102.457C102.437 90.5795 102.547 89.8482 102.781 89.153C103.181 87.845 102.332 87.267 103.017 86.612C103.702 85.957 105.405 86.237 106.59 86.19C107.782 86.1226 108.977 86.1581 110.163 86.296C110.629 86.427 110.374 87.376 110.203 88.112C110.157 88.9867 110.259 89.8628 110.503 90.704C110.539 90.922 110.503 90.704 110.474 91.056L111.183 91.063C111.241 90.137 111.455 89.526 111.445 88.827C111.453 88.2573 111.327 87.6938 111.077 87.1816C110.828 86.6695 110.461 86.223 110.008 85.878C109.055 85.2523 107.95 84.8979 106.81 84.853C105.671 84.8081 104.541 85.0743 103.542 85.623C102.949 85.9551 102.464 86.4508 102.145 87.051C101.825 87.6512 101.686 88.3305 101.742 89.008C101.767 89.716 101.808 90.519 101.875 91.313Z" fill="#101537"/>
<path d="M115.002 111.976C116.018 114.555 116.266 117.373 115.716 120.09C115.167 122.807 113.843 125.307 111.904 127.288C109.966 129.27 107.496 130.648 104.792 131.257C102.087 131.866 99.2647 131.68 96.664 130.721C96.3406 130.602 96.0216 130.471 95.707 130.329C94.3187 129.701 93.0388 128.858 91.915 127.829C91.6943 127.629 91.48 127.42 91.272 127.203C89.963 125.845 88.9353 124.241 88.248 122.485C88.1813 122.32 88.12 122.153 88.064 121.985C87.3013 119.806 87.0745 117.475 87.4026 115.19C87.7307 112.905 88.6042 110.733 89.9492 108.856C91.2942 106.98 93.0711 105.455 95.1298 104.411C97.1886 103.366 99.4685 102.832 101.777 102.855C102.124 102.859 102.47 102.875 102.815 102.904C104.311 103.03 105.779 103.389 107.164 103.968C107.467 104.095 107.767 104.232 108.064 104.379C111.074 105.88 113.459 108.394 114.8 111.479C114.869 111.646 114.934 111.811 115.002 111.976Z" fill="#FFCE4F"/>
<path opacity="0.2" d="M113.451 109.062L103.816 131.443C102.54 131.641 101.243 131.665 99.96 131.514L110.988 106.327C111.923 107.129 112.751 108.048 113.451 109.062Z" fill="white"/>
<path opacity="0.2" d="M102.815 102.906L91.915 127.832C91.6943 127.632 91.48 127.423 91.272 127.206L101.772 102.857C102.125 102.86 102.472 102.877 102.815 102.906Z" fill="white"/>
<path opacity="0.2" d="M108.06 104.381L96.66 130.721C96.3366 130.602 96.0177 130.471 95.703 130.329L107.159 103.97C107.466 104.097 107.766 104.234 108.06 104.381Z" fill="white"/>
<path d="M112.317 113.03C112.382 113.194 112.442 113.36 112.499 113.53C113.452 116.327 113.29 119.384 112.047 122.066C110.804 124.747 108.576 126.846 105.825 127.926C103.075 129.007 100.014 128.986 97.2782 127.868C94.5426 126.75 92.3431 124.621 91.1369 121.923C91.0669 121.763 90.998 121.601 90.937 121.436C90.377 120.03 90.1003 118.528 90.1227 117.015C90.1451 115.502 90.4662 114.008 91.0675 112.62C91.6689 111.231 92.5386 109.975 93.6267 108.924C94.7149 107.873 96.0001 107.047 97.4084 106.493C98.8168 105.94 100.32 105.671 101.833 105.7C103.346 105.73 104.838 106.058 106.224 106.666C107.609 107.274 108.861 108.15 109.907 109.243C110.954 110.336 111.773 111.625 112.32 113.036L112.317 113.03Z" fill="#FA8A00"/>
<path d="M112.499 113.527C113.45 116.325 113.287 119.381 112.045 122.063C110.802 124.744 108.575 126.844 105.826 127.927C105.698 127.977 105.57 128.027 105.441 128.069C102.936 128.954 100.201 128.939 97.706 128.027C97.398 127.915 97.097 127.791 96.798 127.653C95.4331 127.022 94.2053 126.129 93.184 125.025C92.936 124.759 92.7 124.478 92.479 124.186C91.9456 123.486 91.4952 122.726 91.137 121.922C90.6027 120.353 90.4141 118.687 90.584 117.039C90.754 115.39 91.2786 113.798 92.1217 112.371C92.9648 110.944 94.1066 109.717 95.4687 108.773C96.8309 107.829 98.381 107.191 100.013 106.902C101.901 106.569 103.842 106.715 105.658 107.328C105.967 107.432 106.273 107.55 106.575 107.681C108.94 108.7 110.893 110.487 112.117 112.753C112.254 113.002 112.381 113.259 112.499 113.527Z" fill="#FFAC00"/>
<path opacity="0.2" d="M112.117 112.75L105.444 128.067C104.182 128.514 102.851 128.735 101.512 128.72L109.78 109.75C110.721 110.612 111.511 111.626 112.117 112.75Z" fill="white"/>
<path opacity="0.2" d="M101.147 106.757L93.1899 125.023C92.9419 124.757 92.706 124.476 92.485 124.184L100.018 106.9C100.392 106.834 100.768 106.786 101.147 106.757Z" fill="white"/>
<path opacity="0.2" d="M106.575 107.678L97.7109 128.025C97.4029 127.913 97.102 127.789 96.803 127.651L105.662 107.325C105.969 107.429 106.274 107.547 106.575 107.678Z" fill="white"/>
<path d="M105.495 122.714L106.195 124.49L103.939 125.376L103.273 123.676C101.813 124.189 100.256 124.36 98.7199 124.176L98.855 120.946C100.236 121.152 101.646 121.005 102.955 120.518C104.028 120.097 104.324 119.718 104.172 119.338C103.619 117.93 97.8719 121.499 96.2309 117.322C95.5209 115.514 96.2309 113.478 98.7149 112.078L98.0299 110.334L100.286 109.448L100.959 111.16C102.127 110.799 103.356 110.681 104.572 110.812L104.511 113.995C103.347 113.852 102.165 113.987 101.063 114.389C99.963 114.823 99.732 115.281 99.883 115.665C100.411 117.009 106.164 113.456 107.783 117.585C108.463 119.312 107.806 121.307 105.495 122.714Z" fill="#FA8A00"/>
<path d="M105.198 122.149L105.898 123.925L103.642 124.811L102.976 123.111C101.516 123.623 99.9589 123.795 98.4229 123.611L98.557 120.38C99.9379 120.586 101.348 120.439 102.657 119.952C103.729 119.531 104.025 119.152 103.875 118.772C103.322 117.364 97.575 120.933 95.934 116.756C95.223 114.948 95.9339 112.912 98.4179 111.512L97.7329 109.768L99.989 108.882L100.662 110.594C101.83 110.233 103.06 110.115 104.276 110.246L104.215 113.429C103.051 113.286 101.869 113.421 100.767 113.823C99.6669 114.257 99.4369 114.715 99.5869 115.099C100.115 116.443 105.868 112.89 107.487 117.019C108.166 118.747 107.505 120.742 105.198 122.149Z" fill="#FFCE4F"/>
<path d="M107.159 129.018C107.079 128.818 107.519 128.21 107.968 127.657L107.912 127.606C107.225 128.286 106.005 129.412 105.877 128.963C105.793 128.669 106.806 127.674 107.433 127.093L107.346 126.988C106.588 127.67 105.078 128.95 104.96 128.434C104.881 128.09 106.198 126.954 106.888 126.386L106.819 126.286C106.153 126.838 104.839 127.849 104.719 127.335C104.613 126.87 106.719 125.422 106.719 125.422L107.439 124.784C107.439 124.784 107.254 124.507 106.561 124.7C105.868 124.893 105.337 124.662 106.094 124.223C106.95 123.723 107.85 123.556 108.435 123.191C108.9 122.987 109.427 122.973 109.902 123.152L111.402 124.23C111.402 124.23 110.007 127.038 108.622 127.91C108.045 128.587 107.298 129.358 107.159 129.018Z" fill="#FDA893"/>
<path d="M114.665 100.058C114.665 100.058 119.611 107.074 120.623 113.439C120.623 113.439 120.235 117.676 111.196 124.625C110.38 124.345 109.696 123.776 109.272 123.025C109.272 123.025 114.772 116.781 116.59 112.988C116.59 112.988 114.461 108.934 112.402 105.062C112.403 105.058 112.512 101.765 114.665 100.058Z" fill="#898989"/>
<path d="M87.66 113.786L87.2209 113.406C87.2209 113.406 87.2589 112.062 87.7609 111.828C87.8444 111.791 87.9377 111.782 88.0264 111.804C88.1151 111.826 88.1941 111.876 88.2509 111.948L87.66 113.786Z" fill="#FD896B"/>
<path d="M85.091 114.803C84.9828 114.509 84.9678 114.189 85.0482 113.887C85.1285 113.584 85.3003 113.314 85.54 113.113C85.8592 112.86 86.2661 112.743 86.671 112.79C88.179 112.907 89.348 113.48 89.171 114.09C89.105 114.32 88.26 114.462 87.595 114.314C88.0937 114.478 88.6118 114.575 89.136 114.603C89.936 114.633 89.773 115.649 88.768 115.619C88.3763 115.635 87.9842 115.602 87.601 115.519C88.0196 115.664 88.4581 115.743 88.901 115.754C89.385 115.711 89.417 116.48 88.462 116.519C88.019 116.537 87.512 116.554 87.512 116.554C87.512 116.554 88.165 116.636 88.504 116.681C88.843 116.726 89.134 117.117 88.458 117.33C87.927 117.498 86.458 117.853 86.058 117.176C85.6829 116.407 85.3599 115.615 85.091 114.803Z" fill="#FDA893"/>
<path d="M108.226 130.747L103 145.894L100.547 167.761" stroke="#615D5D"/>
</g>
<defs>
<clipPath id="clip0">
<rect x="85" y="82" width="35.623" height="92.349" fill="white"/>
</clipPath>
</defs>
</svg>
