<svg width="105" height="145" viewBox="0 0 105 145" fill="none" xmlns="http://www.w3.org/2000/svg">
<g clip-path="url(#clip0)">
<path d="M97.464 20.6821L104.364 9.30408H96.238V17.1551H93.696V9.30408H87.563V17.1551H85.004V9.30408H78.887V17.1551H76.327V9.30408H70.211V17.1551H67.65V9.30408H61.518V17.1551H58.973V9.30408H52.844V17.1551H50.302V9.30408H44.169V17.1551H41.627V9.30408H35.492V17.1551H32.944V9.30408H26.811V17.1551H24.269V9.30408H18.135V17.1551H15.593V9.30408H9.459V17.1551H6.918V9.30408H0L6.918 20.6821V136.221H97.464V20.6821ZM76.646 25.3321H85.694V38.8941H76.644L76.646 25.3321ZM87.189 39.0211L86.567 39.6471H75.774L75.153 39.0211H87.189ZM85.695 45.0781V58.6401H76.644V45.0751L85.695 45.0781ZM87.189 58.7781L86.567 59.3871H75.774L75.153 58.7781H87.189ZM85.695 64.8321V78.3951H76.644V64.8321H85.695ZM87.189 78.5201L86.567 79.1441H75.774L75.153 78.5201H87.189ZM85.695 84.5891V98.1521H76.644V84.5901L85.695 84.5891ZM87.189 98.2771L86.567 98.9021H75.774L75.153 98.2771H87.189ZM69.644 109.141H93.112V126.541H69.644V109.141ZM57.344 25.3331H66.376V38.8951H57.344V25.3331ZM67.881 39.0211L67.24 39.6471H56.444L55.823 39.0211H67.881ZM66.369 45.0781V58.6401H57.337V45.0751L66.369 45.0781ZM67.881 58.7781L67.24 59.3871H56.444L55.823 58.7781H67.881ZM66.369 64.8321V78.3951H57.337V64.8321H66.369ZM67.881 78.5201L67.24 79.1441H56.444L55.823 78.5201H67.881ZM66.369 84.5891V98.1521H57.337V84.5901L66.369 84.5891ZM67.881 98.2771L67.24 98.9021H56.444L55.823 98.2771H67.881ZM54.031 108.904H61.871V118.921H54.031V108.904ZM54.031 121.485H61.871V127.785H54.031V121.485ZM63.719 129.208L65.408 130.238H38.971L40.66 129.208H63.719ZM68.255 132.454H36.11L38.971 131.454H65.408L68.255 132.454ZM42.492 127.786V121.486H50.349V127.786H42.492ZM50.349 108.904V118.921H42.492V108.905L50.349 108.904ZM38.011 25.3311H47.044V38.8931H38.013L38.011 25.3311ZM48.555 39.0211L47.915 39.6471H37.144L36.503 39.0211H48.555ZM47.042 45.0781V58.6401H38.011V45.0751L47.042 45.0781ZM48.555 58.7781L47.915 59.3871H37.144L36.503 58.7781H48.555ZM47.042 64.8321V78.3951H38.011V64.8321H47.042ZM48.555 78.5201L47.915 79.1441H37.144L36.503 78.5201H48.555ZM47.042 84.5891V98.1521H38.011V84.5901L47.042 84.5891ZM48.555 98.2771L47.915 98.9021H37.144L36.503 98.2771H48.555ZM18.685 25.3311H27.717V38.8931H18.685V25.3311ZM29.23 39.0211L28.606 39.6471H17.815L17.191 39.0211H29.23ZM27.717 45.0781V58.6401H18.685V45.0751L27.717 45.0781ZM29.23 58.7781L28.606 59.3871H17.815L17.191 58.7781H29.23ZM27.717 64.8321V78.3951H18.685V64.8321H27.717ZM29.23 78.5201L28.606 79.1441H17.815L17.191 78.5201H29.23ZM27.717 84.5891V98.1521H18.685V84.5901L27.717 84.5891ZM29.23 98.2771L28.606 98.9021H17.815L17.191 98.2771H29.23ZM34.047 109.732V125.945H11.944V109.733L34.047 109.732ZM8.198 24.3511H14.615V27.3141H8.198V24.3511ZM8.198 29.451H11.574V32.4211H8.198V29.451ZM8.198 34.5391H14.615V37.5041H8.198V34.5391ZM8.198 39.6391H11.574V42.6041H8.198V39.6391ZM8.198 44.7391H14.615V47.6891H8.198V44.7391ZM8.198 49.8281H11.574V52.7911H8.198V49.8281ZM8.198 54.9281H14.615V57.8931H8.198V54.9281ZM8.198 60.0141H11.574V62.9801H8.198V60.0141ZM8.198 65.1201H14.615V68.0841H8.198V65.1201ZM8.198 70.2071H11.574V73.1731H8.198V70.2071ZM8.198 75.3071H14.615V78.2701H8.198V75.3071ZM8.198 80.3931H11.574V83.3581H8.198V80.3931ZM8.198 85.4931H14.615V88.4581H8.198V85.4931ZM8.198 90.593H11.574V93.5571H8.198V90.593ZM8.198 95.6811H14.615V98.6461H8.198V95.6811ZM10.044 127.621L9.227 126.809H36.783L35.965 127.621H10.044ZM32.835 134.69L36.109 133.706H68.254L71.542 134.69H32.835ZM94.335 127.621H68.415L67.597 126.809H95.154L94.335 127.621ZM96.344 98.6721H89.765V95.7071H96.344V98.6721ZM96.344 93.5831H92.877V90.619H96.344V93.5831ZM96.344 88.4831H89.765V85.5181H96.344V88.4831ZM96.344 83.3831H92.877V80.4181H96.344V83.3831ZM96.344 78.2951H89.765V75.3211H96.344V78.2951ZM96.344 73.1951H92.877V70.2211H96.344V73.1951ZM96.344 68.106H89.765V65.1311H96.344V68.106ZM96.344 63.0061H92.877V60.0211H96.344V63.0061ZM96.344 57.9191H89.765V54.9541H96.344V57.9191ZM96.344 52.813H92.877V49.8501H96.344V52.813ZM96.344 47.7131H89.765V44.7631H96.344V47.7131ZM96.344 42.6261H92.877V39.6611H96.344V42.6261ZM96.344 37.5261H89.765V34.5611H96.344V37.5261ZM96.344 32.438H92.877V29.4731H96.344V32.438ZM96.344 27.3381H89.765V24.3511H96.344V27.3381Z" fill="#C2BCE2"/>
<path d="M31.8801 7.57306H97.3581V3.78506V3.01807H90.2111V3.78506V5.29504H72.5041V0.00305176H31.8731V0.659058H31.8801V5.29807H14.1671V3.01904H7.00708V7.57605H31.8801V7.57306Z" fill="#C2BCE2"/>
<path d="M9.45799 9.28809H6.91699V9.30409H9.45799V9.28809Z" fill="#BFB9E1"/>
<path d="M18.135 9.28809H15.594V9.30409H18.135V9.28809Z" fill="#BFB9E1"/>
<path d="M26.811 9.28809H24.269V9.30409H26.811V9.28809Z" fill="#BFB9E1"/>
<path d="M35.4871 9.28809H32.9441V9.30409H35.4871V9.28809Z" fill="#BFB9E1"/>
<path d="M44.1631 9.28809H41.6211V9.30409H44.1631V9.28809Z" fill="#BFB9E1"/>
<path d="M52.8401 9.28809H50.2971V9.30409H52.8401V9.28809Z" fill="#BFB9E1"/>
<path d="M61.5169 9.28809H58.9729V9.30409H61.5169V9.28809Z" fill="#BFB9E1"/>
<path d="M70.2099 9.28809H67.6489V9.30409H70.2099V9.28809Z" fill="#BFB9E1"/>
<path d="M78.8849 9.28809H76.3259V9.30409H78.8849V9.28809Z" fill="#BFB9E1"/>
<path d="M87.5619 9.28809H85.0029V9.30409H87.5619V9.28809Z" fill="#BFB9E1"/>
<path d="M96.238 9.28809H93.696V9.30409H96.238V9.28809Z" fill="#BFB9E1"/>
</g>
<g clip-path="url(#clip1)">
<path d="M66.2762 93.0393C65.6057 93.0393 65.0786 93.0602 64.8049 93.0686H64.766C64.5708 93.1605 64.3815 93.2652 64.1992 93.3821C64.1541 93.4109 64.1118 93.4442 64.0729 93.4815C61.9863 95.063 61.1166 95.0697 59.5385 94.5882C59.2964 94.559 59.0713 94.4452 58.9005 94.2657C58.7297 94.0862 58.6236 93.8518 58.5996 93.6014C58.5757 93.351 58.6355 93.0997 58.769 92.8892C58.9025 92.6787 59.1018 92.5217 59.3337 92.4442C60.5337 92.3322 61.8494 91.3784 61.6818 91.3166C61.5053 91.2756 60.2673 91.5272 60.315 91.2555C60.3628 90.9839 61.2324 90.7933 61.877 90.4698C62.3749 90.219 63.1539 90.652 63.7304 90.9847C63.7304 90.9847 63.9256 90.9337 64.2559 90.8309C64.6187 90.7348 65.1256 90.591 65.7199 90.4079L66.2057 92.7142L66.2762 93.0393Z" fill="#E6B496"/>
<path d="M80.7426 78.861C80.7496 79.5385 80.5917 80.2071 80.2834 80.8053C79.7863 81.871 78.0794 85.3366 76.6073 88.0249C75.6422 89.7869 74.7636 91.218 74.3822 91.437C72.217 92.6757 65.1361 93.6821 64.9604 93.6938L64.8049 93.072V93.0636L64.6494 92.4266L64.2575 90.8451V90.8343L64.1045 90.2007C65.7118 89.7468 70.8624 87.7766 71.8567 87.0502C72.5016 85.9922 73.0531 84.8766 73.5045 83.7167C74.3349 81.6629 75.2662 79.6542 76.2948 77.6983L76.6073 77.3739C77.2308 76.7186 78.0794 76.0064 79.0065 76.375C79.0571 76.3862 79.1063 76.4033 79.1531 76.426C79.6178 76.6296 80.0154 76.968 80.2975 77.4002C80.5796 77.8324 80.7342 78.3399 80.7426 78.861Z" fill="#0A6FAB"/>
<path opacity="0.2" d="M80.7426 78.8618C80.7496 79.5394 80.5918 80.2079 80.2835 80.8061C79.7863 81.8719 78.0794 85.3375 76.6074 88.0257C75.6422 89.7878 74.7637 91.2188 74.3823 91.4378C72.2171 92.6766 65.1361 93.683 64.9604 93.6947L64.8049 93.0728H64.7661C64.5708 93.1647 64.3815 93.2694 64.1993 93.3863C64.1541 93.4151 64.1118 93.4484 64.073 93.4857C64.0728 93.4804 64.0709 93.4754 64.0675 93.4714C64.0641 93.4674 64.0594 93.4648 64.0543 93.464C63.8762 93.4465 62.6576 93.9179 62.6673 93.637C62.677 93.3562 63.5167 93.0001 64.1313 92.5796C64.2844 92.4751 64.4651 92.422 64.6487 92.4275C65.1399 92.456 65.6221 92.5758 66.0722 92.7811C66.0722 92.7811 66.1207 92.7577 66.2082 92.7192C66.2956 92.6808 66.4236 92.6198 66.5896 92.5378L66.3353 91.9243C67.8956 91.1779 72.7928 88.33 73.69 87.4239C74.1288 86.9825 75.9904 78.8451 76.6049 77.3756C77.2284 76.7203 78.077 76.0081 79.0041 76.3767C79.0547 76.3879 79.1039 76.405 79.1507 76.4277C79.6158 76.6309 80.0138 76.969 80.2963 77.4011C80.5789 77.8331 80.7339 78.3406 80.7426 78.8618Z" fill="black"/>
<path d="M79.0922 143.105C79.0679 142.603 79.0112 142.061 78.9497 141.605C78.909 141.273 78.8449 140.944 78.7578 140.622C78.693 140.421 78.6145 140.299 78.5149 140.263C78.4153 140.227 74.4355 139.82 74.3149 139.923C73.5426 140.46 72.7008 140.882 71.8145 141.177C71.2471 141.376 70.6478 141.461 70.0493 141.427C69.7963 141.407 69.5446 141.373 69.2955 141.323C69.1237 141.28 68.945 141.277 68.7721 141.315C68.5992 141.352 68.4365 141.428 68.2955 141.538C68.1921 141.645 68.119 141.78 68.0841 141.927C68.0491 142.074 68.0536 142.229 68.0971 142.374C68.1141 142.415 68.1286 142.463 68.1521 142.508C68.5917 143.282 69.2789 143.873 70.0955 144.18C70.3942 144.297 70.7069 144.372 71.025 144.403L72.7554 144.563C73.0716 144.585 73.3893 144.555 73.6963 144.473C73.8854 144.403 74.0781 144.343 74.2736 144.294C74.3332 144.277 74.3961 144.279 74.4549 144.298C74.5137 144.317 74.566 144.353 74.6056 144.402C74.6817 144.521 74.7676 144.633 74.8623 144.737C74.8857 144.744 74.9052 144.744 74.9254 144.752L77.0882 144.947C77.7456 144.97 78.3973 144.815 78.978 144.496C79.0725 144.209 79.1135 143.906 79.0987 143.604C79.1011 143.447 79.1011 143.277 79.0922 143.105Z" fill="#2D2D2D"/>
<path d="M72.5764 140.505L76.161 140.827L77.7521 140.972L79.2096 141.104C79.2082 141.06 79.212 141.015 79.2209 140.972C79.3578 138.388 80.5084 118.058 80.4177 116.225C80.5885 112.432 81.2316 108.678 82.3311 105.054C82.7603 103.733 82.9676 102.345 82.944 100.951C82.9327 100.77 82.9327 100.587 82.9124 100.401C82.8701 99.5447 82.7552 98.6939 82.5691 97.8583C82.5401 97.6725 82.4979 97.4893 82.4428 97.3099C82.2869 96.6632 82.0828 96.03 81.8323 95.4158L75.8533 96.4782L74.9311 108.823C74.9311 108.834 74.9424 108.847 74.9311 108.854L72.5764 140.505Z" fill="#444444"/>
<path d="M66.1546 89.541H57.4663V97.0348H66.1546V89.541Z" fill="#99C75D"/>
<path opacity="0.2" d="M66.1546 89.541H57.4663V89.8854H66.1546V89.541Z" fill="black"/>
<path d="M66.6186 86.9272H57V89.5411H66.6186V86.9272Z" fill="#6B9B35"/>
<path d="M62.7005 86.9272H60.9199V97.0348H62.7005V86.9272Z" fill="#DC2601"/>
<path d="M83.6632 142.98C83.5976 142.481 83.5074 141.987 83.3928 141.498C83.326 141.17 83.2356 140.848 83.1223 140.534C83.0414 140.341 82.9499 140.225 82.8511 140.199C82.7523 140.174 78.7442 140.126 78.6357 140.237C77.9114 140.841 77.1088 141.338 76.2511 141.712C75.7021 141.961 75.1126 142.101 74.5134 142.124C74.2592 142.127 74.0051 142.114 73.7523 142.087C73.5776 142.061 73.3995 142.074 73.2304 142.127C73.0614 142.179 72.9056 142.27 72.7742 142.391C72.6806 142.508 72.6195 142.649 72.5973 142.799C72.575 142.949 72.5925 143.102 72.6478 143.243C72.6663 143.287 72.6888 143.33 72.715 143.37C73.2179 144.102 73.9533 144.63 74.7936 144.86C75.101 144.949 75.4184 144.997 75.7377 145.001H77.4737C77.791 144.996 78.1053 144.937 78.4041 144.827C78.5861 144.739 78.7736 144.663 78.9652 144.6C79.0232 144.577 79.0865 144.572 79.1473 144.586C79.2081 144.599 79.2636 144.631 79.3069 144.677C79.3918 144.79 79.4864 144.895 79.5895 144.991C79.6111 144.99 79.6326 144.994 79.6527 145.002H81.8252C82.4821 144.963 83.1181 144.749 83.6713 144.381C83.7414 144.087 83.7562 143.781 83.715 143.481C83.7037 143.319 83.6818 143.151 83.6632 142.98Z" fill="#474747"/>
<path opacity="0.2" d="M74.9336 108.824C74.9336 108.835 74.9449 108.848 74.9336 108.854C75.464 121.099 76.0915 139.057 76.1611 140.827V140.972H79.2243C79.3611 138.388 80.5117 118.058 80.421 116.225C80.5919 112.432 81.235 108.678 82.3344 105.054C82.7636 103.733 82.9709 102.345 82.9474 100.951C82.936 100.77 82.936 100.587 82.9158 100.401C82.8734 99.5447 82.7585 98.6939 82.5725 97.8583C82.5434 97.6725 82.5012 97.4893 82.4461 97.3099C82.2902 96.6632 82.0861 96.03 81.8356 95.4158L75.8567 96.4782L74.9336 108.824Z" fill="black"/>
<path d="M74.7773 95.221C74.7773 95.221 74.8583 96.1138 74.9336 97.06C74.9449 97.2272 74.9563 97.4136 74.9733 97.595C75.0024 98.1559 75.0413 98.6691 75.0721 98.9558C75.0915 99.2901 75.1207 99.6638 75.1409 100.102C75.1514 100.269 75.1579 100.443 75.1806 100.636C75.7174 110.651 76.7806 140.972 76.7806 140.972H83.6113C83.5547 139.068 82.9636 117.936 82.7207 116.08C82.566 112.286 82.8888 108.488 83.681 104.779C83.9954 103.423 84.0814 102.021 83.9352 100.635C83.9166 100.455 83.8988 100.282 83.868 100.101C83.7525 99.2499 83.5655 98.4109 83.3093 97.5933C83.2653 97.4099 83.2057 97.2309 83.1312 97.0583C82.9237 96.4254 82.6678 95.8105 82.366 95.2194L74.7773 95.221Z" fill="#646464"/>
<path opacity="0.2" d="M83.6131 140.973H82.8034C82.6244 134.583 82.1645 118.017 81.9507 116.326C81.7872 112.213 82.1185 108.095 82.937 104.066C83.4695 101.482 83.338 98.7985 82.5556 96.2826C82.5091 96.0829 82.4474 95.8872 82.371 95.6975C82.3216 95.5303 82.2608 95.3807 82.2042 95.2211H82.3661C82.6699 95.8112 82.9259 96.4263 83.1313 97.06C83.2041 97.2347 83.2637 97.415 83.3094 97.5992C84.0671 99.9111 84.1951 102.393 83.6795 104.775C82.8864 108.484 82.5654 112.284 82.7248 116.078C82.9637 117.932 83.5515 139.069 83.6131 140.973Z" fill="black"/>
<path d="M76.2776 73.1945C76.3058 73.3898 76.3193 73.5871 76.3181 73.7846C76.2975 74.5041 76.1643 75.2154 75.9238 75.891C75.9238 75.891 79.4485 74.9005 80.4048 73.9819C80.1591 73.2535 80.0093 72.4945 79.9594 71.725C79.8323 70.5923 79.7813 69.4238 79.7683 68.9749V68.7784C79.7683 68.7784 75.0469 70.5923 75.9238 72.0894C75.9757 72.1716 76.0184 72.2597 76.0509 72.3519C76.1717 72.6177 76.2483 72.9025 76.2776 73.1945Z" fill="#FFDEC7"/>
<path d="M74.7215 100.102H84C84 100.102 82.4162 82.2614 82.4162 78.1229C82.4162 76.2238 80.6534 73.4879 80.4907 73.0767C79.0937 73.8955 77.6173 74.5609 76.0858 75.0619C75.8429 74.9783 74.4032 77.2945 73.9198 78.4564C73.4364 79.6183 73.6769 83.8329 73.9198 85.4027C74.1628 86.9725 74.7619 99.1564 74.7215 100.102Z" fill="#2497DA"/>
<path opacity="0.2" d="M82.0331 77.5846C82.0309 76.8653 81.918 76.1509 81.6987 75.4681C82.1061 76.2953 82.3489 77.1982 82.4129 78.1238C82.4129 82.2623 83.9967 100.103 83.9967 100.103H82.672C82.4736 95.3707 81.8979 81.3277 82.0331 77.5846Z" fill="black"/>
<path opacity="0.2" d="M75.9238 72.0887C75.9757 72.1709 76.0184 72.2589 76.0509 72.3511C76.1718 72.6171 76.2484 72.9023 76.2776 73.1945C77.3498 72.6752 78.348 72.0066 79.2444 71.2076C79.6339 70.5346 79.8165 69.7556 79.7683 68.9733V68.7769C79.7683 68.7769 75.0469 70.5916 75.9238 72.0887Z" fill="black"/>
<path d="M75.2987 62.3263C74.7195 62.8946 74.337 63.6434 74.2096 64.4578C74.0137 65.1767 73.7861 65.6431 73.8695 65.8562C73.925 66.0296 73.9912 66.1991 74.0679 66.3636C74.1489 66.5032 73.1133 68.7551 73.2072 68.9373C73.3011 69.1196 73.8461 69.163 73.9538 69.1931C74.1967 69.27 74.1821 69.5425 74.1805 69.7164C74.1789 69.8903 73.8971 70.1444 73.9108 70.2672C73.9197 70.3717 74.4776 70.4445 74.4776 70.4445C74.4776 70.4445 74.0525 70.6827 74.0801 70.7997C74.1125 70.9343 74.323 70.9117 74.4436 71.0271C74.5619 71.155 74.1894 71.9248 74.3562 72.148C74.9619 72.9513 76.9999 72.4823 78.2647 71.654C79.3983 70.9117 80.1432 70.233 80.3635 70.0883C80.8355 69.7682 82.7546 66.2876 82.1448 64.7161C81.5351 63.1446 80.3748 61.8231 79.0153 61.6492C77.7378 61.4134 76.4208 61.6534 75.2987 62.3263Z" fill="#FFDEC7"/>
<path d="M74.4315 62.4408C75.4254 61.6546 76.5909 61.132 77.8258 60.9186C78.6488 60.7591 79.4986 60.8429 80.2774 61.1604C81.0562 61.478 81.7322 62.0163 82.2275 62.7133C82.8688 63.7497 83.0972 65.0019 82.8647 66.2081C82.5411 67.3778 82.0113 68.4759 81.3019 69.4472C80.6396 70.4728 79.8704 71.2862 79.9408 71.5369C79.3392 70.7713 79.3951 68.8186 79.3416 68.3714C79.608 68.1399 80.4752 66.616 79.7295 66.1145C78.9837 65.613 78.1529 66.5467 77.7554 67.6701C77.4631 66.4882 77.4517 65.1683 76.8849 64.3031C76.4234 63.8501 74.7052 63.9579 74.2129 63.718C73.4469 63.3377 73.944 62.7183 74.4315 62.4408Z" fill="#2D2D2D"/>
<path d="M74.4315 62.4408C75.4254 61.6546 76.5909 61.132 77.8258 60.9186C78.6488 60.7591 79.4986 60.8429 80.2774 61.1604C81.0562 61.478 81.7322 62.0163 82.2275 62.7133C82.8688 63.7497 83.0972 65.0019 82.8647 66.2081C82.5411 67.3778 82.0113 68.4759 81.3019 69.4472C80.6396 70.4728 79.8704 71.2862 79.9408 71.5369C79.3392 70.7713 79.3951 68.8186 79.3416 68.3714C79.608 68.1399 80.4752 66.616 79.7295 66.1145C78.9837 65.613 78.1529 66.5467 77.7554 67.6701C77.4631 66.4882 77.4517 65.1683 76.8849 64.3031C76.4234 63.8501 74.7052 63.9579 74.2129 63.718C73.4469 63.3377 73.944 62.7183 74.4315 62.4408Z" fill="#2D2D2D"/>
<path opacity="0.2" d="M75.1409 100.102C75.1514 100.269 75.1579 100.443 75.1806 100.636H83.9344C83.9158 100.455 83.898 100.282 83.8672 100.102H75.1409Z" fill="black"/>
<path d="M62.4114 98.1391C64.1118 98.3648 65.0073 98.1968 66.9361 96.133C67.1027 95.9862 67.2768 95.8487 67.4575 95.7209C67.7255 95.6607 68.2786 95.5537 68.9814 95.4283L68.0097 92.8713C66.9118 93.4055 66.0972 93.7841 66.0802 93.7841C65.4551 93.5426 64.5976 93.2408 64.1328 93.5835C63.5263 94.0123 62.6753 94.3584 62.6753 94.6367C62.6753 94.9151 63.8769 94.4528 64.0599 94.4696C64.2429 94.4863 63.0616 95.6833 61.8599 95.9976C61.6372 96.116 61.4604 96.3095 61.3588 96.5459C61.2572 96.7822 61.2369 97.0474 61.3013 97.2973C61.3656 97.5472 61.5108 97.767 61.7127 97.9201C61.9146 98.0732 62.1611 98.1505 62.4114 98.1391Z" fill="#FFDEC7"/>
<path d="M66.332 92.9324C67.8956 92.1876 72.7928 89.3297 73.6883 88.4236C74.1498 87.9588 76.209 78.922 76.6996 78.2015C77.2592 77.3714 78.1247 76.0566 79.3887 76.4403C81.094 76.9702 81.8527 78.5358 81.2324 80.6815C80.6745 82.6241 77.8227 91.7153 76.9409 92.435C74.9385 94.065 67.9401 96.2801 67.7571 96.3144L66.332 92.9324Z" fill="#0A6FAB"/>
<path d="M80.4047 72.5642L81.1894 73.9743L75.6072 76.5481L76.0857 75.0635L80.4047 72.5642Z" fill="#0A6FAB"/>
<path d="M74.0568 62.6824C74.0568 62.6824 71.0859 63.1839 70.728 63.3118C71.8082 65.893 74.6827 65.5687 77.3969 64.6827C76.3523 64.1945 74.2997 63.1404 74.0568 62.6824Z" fill="#0A6FAB"/>
<path opacity="0.2" d="M74.0568 62.6824C74.0568 62.6824 71.0859 63.1839 70.728 63.3118C70.7758 63.4263 70.8317 63.5308 70.8851 63.6344C71.6325 63.387 73.2017 62.9173 74.0568 62.6824Z" fill="black"/>
<path d="M74.0593 62.6832C75.431 59.8595 79.0213 59.6297 80.5848 60.3427C82.9783 61.4385 84.1654 64.6893 82.8375 66.8626C81.2917 66.5241 74.7759 63.9119 74.0593 62.6832Z" fill="#2497DA"/>
<path opacity="0.2" d="M80.5847 60.3452C79.7266 60.0319 78.8087 59.9333 77.9065 60.0577C77.0043 60.1821 76.1436 60.5259 75.3953 61.0607C76.1344 60.6131 76.9588 60.3365 77.8115 60.2499C78.6643 60.1633 79.5251 60.2688 80.3345 60.5592C82.6738 61.6199 83.869 64.6743 82.7515 66.8443C82.7781 66.8532 82.8051 66.8604 82.8325 66.866C84.1653 64.6893 82.9791 61.441 80.5847 60.3452Z" fill="black"/>
</g>
<g clip-path="url(#clip2)">
<path fill-rule="evenodd" clip-rule="evenodd" d="M55.6774 89.103C54.1959 89.803 52.0444 90.0185 51.2894 89.3452C50.5343 88.672 50.9539 87.7832 51.3171 87.7565C51.6803 87.7298 57.4102 87.5143 55.6774 89.103Z" fill="#F08E70"/>
<path fill-rule="evenodd" clip-rule="evenodd" d="M34.598 140.843C35.287 141.35 36.1027 141.672 36.9625 141.778C38.1058 142.011 39.3877 142.37 40.0828 142.554C40.8808 142.768 41.0338 143.29 40.896 143.985C40.8388 144.278 41.0982 144.734 40.7395 144.997L30.0884 144.836C29.6974 144.83 29.574 144.113 29.574 143.684V140.976C29.574 140.119 30.0973 140.022 30.6878 140.022H33.5505C33.9003 140.025 34.0452 140.327 34.598 140.843Z" fill="#00888B"/>
<path fill-rule="evenodd" clip-rule="evenodd" d="M58.397 78.1018C56.7501 78.1949 54.7667 79.0276 54.4536 79.9716C54.1405 80.9155 54.9591 81.4905 55.2892 81.3422C55.6193 81.1939 60.7167 78.663 58.397 78.1018Z" fill="#F08E70"/>
<path fill-rule="evenodd" clip-rule="evenodd" d="M33.2748 74.7114C35.5167 75.3596 40.5944 79.8232 42.5124 80.2939C43.1503 80.4508 54.9885 78.8845 55.3204 78.9672C55.6523 79.05 55.384 81.3335 55.2247 81.8275C55.2247 81.8275 42.992 87.0962 39.7893 85.9101C36.5866 84.7239 32.4893 81.8654 32.238 81.1818C31.1564 78.2285 31.0329 74.0631 33.2748 74.7114Z" fill="#898989"/>
<path fill-rule="evenodd" clip-rule="evenodd" d="M31.9383 94.8443C31.9383 94.8443 27.5011 96.208 27.8482 100.007C28.5075 107.216 29.4871 118.152 29.6374 120.992C29.862 125.328 30.0641 140.089 30.1885 140.659C30.2115 140.746 30.2551 140.827 30.3157 140.895C30.3764 140.963 30.4525 141.017 30.5383 141.053C30.8174 141.159 33.664 141.442 33.8394 140.603C34.4128 137.863 36.0759 124.192 36.338 122.06C36.6001 119.929 39.1112 101.747 39.1112 101.747C39.1112 101.747 39.3519 97.6088 38.5056 96.3597C37.0698 94.2409 33.9753 94.5615 31.9383 94.8443Z" fill="#78777E"/>
<path fill-rule="evenodd" clip-rule="evenodd" d="M32.5851 96.9898C32.5836 96.9031 32.5464 96.8204 32.4816 96.7601C32.4169 96.6998 32.3299 96.6668 32.2398 96.6683C32.1498 96.6697 32.0641 96.7056 32.0015 96.768C31.9389 96.8304 31.9046 96.9143 31.9062 97.001C31.9062 97.0683 32.3436 120.476 32.4286 121.977C32.5136 123.478 31.7254 140.929 31.7228 140.98C31.7206 141.066 31.7533 141.148 31.8137 141.211C31.8741 141.273 31.9575 141.31 32.0461 141.314C32.1346 141.318 32.2211 141.289 32.2873 141.232C32.3534 141.175 32.3939 141.096 32.4 141.01C32.4 140.96 33.1935 123.455 33.1067 121.94C33.0199 120.424 32.586 97.0571 32.5851 96.9898Z" fill="#3B405F"/>
<path fill-rule="evenodd" clip-rule="evenodd" d="M34.342 66.4437C34.9571 66.6459 35.4641 67.0744 35.7522 67.6358C36.0404 68.1971 36.0863 68.8454 35.8798 69.4392L34.2803 73.9994C34.0702 74.5919 33.6254 75.0803 33.043 75.358C32.4605 75.6356 31.7878 75.6799 31.1716 75.4812C30.5566 75.2788 30.0497 74.8502 29.7616 74.289C29.4735 73.7278 29.4276 73.0795 29.6337 72.4857L31.2333 67.9255C31.4431 67.3328 31.8879 66.8443 32.4704 66.5666C33.0529 66.2889 33.7258 66.2447 34.342 66.4437Z" fill="#F5AC83"/>
<path fill-rule="evenodd" clip-rule="evenodd" d="M35.7191 72.5425C35.7191 72.5425 31.7712 71.6676 30.9482 71.5408C30.2518 71.4539 29.5464 71.4579 28.8512 71.5529C28.6884 71.5943 28.6598 71.8063 28.6445 71.9244C28.6293 72.0425 29.0095 73.2089 29.0158 73.3218C29.0221 73.4347 26.3132 77.6397 26.6388 81.3913C26.7444 82.6171 28.5819 86.0903 28.4504 88.9203C28.1821 94.7485 25.9455 100.026 26.001 100.341C26.7256 104.591 36.9527 102.672 39.4817 100.594C39.8165 99.6333 40.0154 98.6336 40.0731 97.6217C40.2425 94.5805 40.221 91.5323 40.0086 88.4936C39.8354 86.292 39.3848 84.119 38.6667 82.0223C37.6559 79.256 36.8928 77.2104 36.7818 77.0156C36.4186 76.3768 35.5428 75.2441 35.5294 75.0657C35.8069 74.5561 36.1289 74.0701 36.492 73.6132C36.5779 73.4615 35.9427 72.6684 35.7191 72.5425Z" fill="#9B97AF"/>
<path fill-rule="evenodd" clip-rule="evenodd" d="M50.155 88.8997L50.5209 87.623C50.6447 87.4979 50.8079 87.4157 50.9852 87.3894C51.3144 87.3239 51.7993 87.2937 52.0051 87.6161C52.3857 88.3856 52.5988 89.2219 52.6313 90.0737C52.4776 90.3037 52.2553 90.4835 51.9936 90.5895C51.7319 90.6955 51.4431 90.7228 51.165 90.6677C50.469 90.4944 50.155 88.8997 50.155 88.8997Z" fill="#17171B"/>
<path fill-rule="evenodd" clip-rule="evenodd" d="M32.7086 78.1733C35.1079 78.2354 40.4808 87.8548 41.1375 88.179C41.7941 88.5031 50.7723 87.7678 51.157 87.7626C51.5417 87.7574 51.946 90.3039 51.9237 90.8831C51.9237 90.8831 44.3276 94.1029 40.5032 93.7279C36.6788 93.3529 30.1947 84.4584 29.7152 83.7895C27.6451 80.8999 29.8673 78.0992 32.7086 78.1733Z" fill="#898989"/>
<path fill-rule="evenodd" clip-rule="evenodd" d="M33.0064 68.4073C33.2882 71.3279 35.9336 70.1745 35.9201 71.4167L35.9595 71.421C38.2219 71.6572 38.4805 70.6555 38.5064 70.4245C38.5324 70.1935 38.6156 69.0151 38.6737 68.9375C38.7319 68.8599 39.2677 68.9159 39.2999 68.6194C39.248 67.1983 39.0632 65.7846 38.748 64.3954C38.5752 63.7109 38.2637 63.0661 37.8313 62.498C37.399 61.9299 36.8544 61.4498 36.2288 61.0852C32.3346 61.3792 33.7033 66.2893 32.9456 65.9488C32.1879 65.6083 31.508 66.135 31.754 67.0582C32.0993 68.347 30.6393 69.5831 33.0064 68.4073Z" fill="#F5AC83"/>
<path fill-rule="evenodd" clip-rule="evenodd" d="M34.4342 65.9747C34.4342 65.9747 35.9049 65.5265 35.2662 63.3481C36.3023 63.556 37.37 63.5723 38.4125 63.3964C39.342 63.0447 39.8161 60.0017 38.8347 58.9379C37.8534 57.8742 38.0967 59.4465 38.0967 59.4465C38.0967 59.4465 33.9225 57.9294 32.2389 58.0035C30.5552 58.0776 29.3761 60.8275 29.386 61.8577C29.386 61.8577 29.0442 61.1111 28.4958 61.1508C27.9474 61.1904 28.7714 62.2369 28.7714 62.2369C28.2819 62.5153 27.9136 62.955 27.7345 63.4748C27.6102 64.1644 30.0605 67.2678 30.854 68.8298L30.8773 68.8815C31.0517 69.2686 31.5133 69.591 31.8479 69.3056C32.0705 69.121 32.243 68.8867 32.3502 68.6232C32.4575 68.3597 32.4963 68.0749 32.4634 67.7936C32.4634 67.7936 31.6663 66.3437 32.4222 65.9833C32.4222 65.9833 32.925 65.5316 33.4859 66.5514C33.5706 66.8848 33.6032 67.2285 33.5825 67.5712C33.3766 68.6879 33.4859 69.8375 33.8992 70.8995C34.5415 72.565 36.3907 72.2952 37.0375 72.365C37.6843 72.4348 38.4635 72.234 38.535 71.5961L38.7927 69.3022C38.8168 69.0841 38.7354 68.9444 38.6719 68.9393C38.6719 68.9393 37.5984 68.8824 36.8183 68.8781C36.0382 68.8737 35.4818 68.9203 35.0577 68.491C34.8167 68.2949 34.6227 68.0508 34.4891 67.7755C34.3555 67.5002 34.2855 67.2002 34.2839 66.8962C34.2761 66.5829 34.327 66.2707 34.4342 65.9747Z" fill="#101537"/>
</g>
<defs>
<clipPath id="clip0">
<rect width="104.363" height="136.217" fill="white"/>
</clipPath>
<clipPath id="clip1">
<rect x="57" y="60" width="27" height="85" fill="white"/>
</clipPath>
<clipPath id="clip2">
<rect x="26" y="58" width="33" height="87" fill="white"/>
</clipPath>
</defs>
</svg>
