<svg width="263" height="161" viewBox="0 0 263 161" fill="none" xmlns="http://www.w3.org/2000/svg">
<path d="M237 108.782C237 126.782 190.214 141.382 132.5 141.382C74.786 141.382 28 126.782 28 108.782" fill="white"/>
<path d="M237 108.782C237 126.782 190.214 141.382 132.5 141.382C74.786 141.382 28 126.782 28 108.782" stroke="black" stroke-width="0.5" stroke-miterlimit="10"/>
<path d="M28 90V110" stroke="black" stroke-width="0.5" stroke-miterlimit="10"/>
<path d="M132.411 57C190.076 57 236.822 71.586 236.822 89.578C236.822 107.57 190.076 122.157 132.411 122.157C74.746 122.157 28 107.571 28 89.578C28 71.585 74.746 57 132.411 57Z" fill="#E8E8E8" stroke="black" stroke-width="0.5"/>
<path d="M237 89.574L236.829 110.653" stroke="black" stroke-width="0.5" stroke-miterlimit="10"/>
<path d="M9.00586 102.976H12.7719L10.5719 92.842L9.00586 102.976Z" fill="#707070"/>
<path d="M1.0019 85.5301C1.07906 88.0913 2.16422 90.5185 4.02143 92.2839C5.87863 94.0493 8.35768 95.01 10.9195 94.9573C13.4813 94.9046 15.9188 93.8426 17.7018 92.0024C19.4848 90.1621 20.4692 87.6923 20.4409 85.1301C20.2689 76.7571 10.3159 65.6411 10.3159 65.6411C10.3159 65.6411 0.826903 77.0001 1.0019 85.5301Z" fill="#FEFFFD" stroke="#707070"/>
<path d="M76.387 38.3341H80.153L77.953 28.2001L76.387 38.3341Z" fill="#707070"/>
<path d="M68.383 20.888C68.4602 23.4492 69.5453 25.8764 71.4025 27.6418C73.2597 29.4072 75.7388 30.3679 78.3006 30.3152C80.8624 30.2625 83.2999 29.2006 85.0829 27.3603C86.8659 25.52 87.8503 23.0502 87.822 20.488C87.65 12.115 77.697 0.999023 77.697 0.999023C77.697 0.999023 68.208 12.358 68.383 20.888Z" fill="#FEFFFD" stroke="#707070"/>
<path d="M18.8669 112.288H22.6329L20.4329 102.154L18.8669 112.288Z" fill="#707070"/>
<path d="M10.863 93.423C10.973 99.591 15.413 104.487 20.78 104.361C26.147 104.235 30.411 99.132 30.302 92.961C30.13 83.34 20.177 70.567 20.177 70.567C20.177 70.567 10.688 83.622 10.863 93.423Z" fill="#FEFFFD" stroke="#707070"/>
<path d="M176.732 160.071H180.498L178.298 149.937L176.732 160.071Z" fill="#707070"/>
<path d="M168.728 142.625C168.805 145.186 169.89 147.613 171.748 149.379C173.605 151.144 176.084 152.105 178.646 152.052C181.207 152 183.645 150.938 185.428 149.097C187.211 147.257 188.195 144.787 188.167 142.225C187.995 133.852 178.042 122.736 178.042 122.736C178.042 122.736 168.553 134.095 168.728 142.625Z" fill="#FEFFFD" stroke="#707070"/>
<path d="M250.413 103H254.179L251.979 92.866L250.413 103Z" fill="#707070"/>
<path d="M242.409 85.554C242.486 88.1152 243.571 90.5424 245.429 92.3078C247.286 94.0732 249.765 95.034 252.327 94.9812C254.889 94.9285 257.326 93.8666 259.109 92.0263C260.892 90.186 261.876 87.7162 261.848 85.154C261.676 76.781 251.723 65.665 251.723 65.665C251.723 65.665 242.234 77.024 242.409 85.554Z" fill="#FEFFFD" stroke="#707070"/>
</svg>
