<svg width="283" height="208" viewBox="0 0 283 208" fill="none" xmlns="http://www.w3.org/2000/svg">
<g clip-path="url(#clip0)">
<path d="M166.729 28.4523C168.17 28.4507 169.596 28.7388 170.924 29.2995C172.251 29.8602 173.453 30.682 174.459 31.7165C175.437 29.3634 177.067 27.3414 179.158 25.8906C181.248 24.4399 183.709 23.6215 186.25 23.5327C186.601 17.8019 188.902 12.3655 192.77 8.1322C196.638 3.89895 201.837 1.1254 207.499 0.275129C213.161 -0.57514 218.942 0.549403 223.877 3.4608C228.811 6.3722 232.6 10.894 234.609 16.2704C238.399 16.3172 242.063 17.6413 245.012 20.0297C247.96 22.4181 250.022 25.7319 250.865 29.4378C252.334 28.7588 253.936 28.4188 255.554 28.4431C257.171 28.4673 258.762 28.8551 260.211 29.5779C261.659 30.3007 262.927 31.34 263.921 32.6194C264.916 33.8988 265.611 35.3857 265.957 36.9705C266.303 38.5553 266.29 40.1976 265.918 41.7766C265.547 43.3556 264.828 44.831 263.813 46.0941C262.798 47.3573 261.513 48.3759 260.054 49.0752C258.594 49.7744 256.997 50.1364 255.379 50.1345H166.729C165.287 50.1702 163.852 49.9161 162.509 49.3872C161.167 48.8584 159.943 48.0654 158.91 47.055C157.878 46.0446 157.057 44.8372 156.497 43.5039C155.936 42.1706 155.648 40.7383 155.648 39.2915C155.648 37.8446 155.936 36.4123 156.497 35.079C157.057 33.7457 157.878 32.5384 158.91 31.528C159.943 30.5176 161.167 29.7246 162.509 29.1957C163.852 28.6668 165.287 28.4128 166.729 28.4485V28.4523Z" fill="url(#paint0_linear)"/>
<path d="M272.209 186.903H259.362C258.631 183.881 256.901 181.196 254.454 179.287C252.007 177.377 248.987 176.355 245.886 176.387C244.711 176.387 243.541 176.532 242.401 176.82C240.552 172.221 237.311 168.32 233.134 165.666C228.957 163.012 224.056 161.739 219.12 162.026C214.184 162.314 209.462 164.146 205.619 167.267C201.777 170.387 199.007 174.638 197.7 179.421C196.243 178.536 194.573 178.07 192.87 178.072C190.492 178.038 188.198 178.947 186.484 180.6C184.77 182.254 183.776 184.518 183.718 186.903H148.273C147.113 184.588 145.332 182.644 143.129 181.292C140.927 179.939 138.391 179.231 135.808 179.248C132.458 179.238 129.215 180.433 126.668 182.617C126.031 178.366 123.976 174.457 120.839 171.528C117.702 168.599 113.668 166.823 109.395 166.489C105.122 166.155 100.862 167.282 97.3102 169.688C93.7584 172.094 91.1243 175.636 89.8376 179.736C88.1348 176.557 85.609 173.897 82.5261 172.035C79.4431 170.174 75.9169 169.18 72.3185 169.159C70.1165 163.614 66.2958 158.866 61.3571 155.536C56.4183 152.206 50.5918 150.45 44.641 150.498C28.9293 150.498 16.0841 162.427 15.1475 177.485C13.1324 177.495 11.1393 177.906 9.28389 178.695C7.42849 179.483 5.74773 180.633 4.33916 182.079C2.93059 183.524 1.82227 185.235 1.07852 187.114C0.334779 188.992 -0.0295773 191 0.00660352 193.02C0.0427843 195.041 0.478781 197.034 1.28929 198.884C2.0998 200.735 3.26867 202.405 4.72807 203.799C6.18747 205.192 7.90833 206.281 9.79076 207.003C11.6732 207.724 13.6797 208.063 15.6939 208C20.4373 208 272.214 207.906 272.214 207.906C273.616 207.948 275.011 207.707 276.318 207.199C277.625 206.69 278.817 205.923 279.823 204.944C280.829 203.965 281.629 202.793 282.175 201.498C282.721 200.203 283.003 198.812 283.003 197.406C283.003 196 282.721 194.608 282.175 193.313C281.629 192.018 280.829 190.846 279.823 189.867C278.817 188.888 277.625 188.121 276.318 187.612C275.011 187.104 273.616 186.863 272.214 186.905L272.209 186.903Z" fill="url(#paint1_linear)"/>
<g clip-path="url(#clip1)">
<path d="M131.578 143.32C130.416 147.775 128.092 151.837 124.846 155.085C117.153 162.753 88.6927 171.893 85.5118 172.861C84.877 173.04 84.2061 173.045 83.5689 172.875C82.9316 172.705 82.3511 172.366 81.8877 171.894C81.4136 171.415 81.0748 170.818 80.906 170.164C80.7373 169.51 80.7446 168.822 80.9274 168.172C81.8877 165.045 91.0429 136.474 98.6618 128.732C101.888 125.466 105.923 123.127 110.349 121.957L120.927 132.604L131.578 143.32Z" fill="#FFE470"/>
<path d="M120.926 132.6L131.578 143.32C130.416 147.774 128.092 151.835 124.847 155.083C117.153 162.751 88.6927 171.89 85.5119 172.858C84.8771 173.037 84.2062 173.042 83.5689 172.872C82.9316 172.702 82.3511 172.364 81.8877 171.892L120.926 132.6Z" fill="#FFD400"/>
<path d="M122.184 136.62L111.754 147.191C111.045 147.842 110.125 148.212 109.165 148.234C108.181 148.227 107.233 147.856 106.502 147.191V147.117C105.827 146.421 105.448 145.486 105.448 144.512C105.448 143.538 105.827 142.603 106.502 141.906L117.008 131.408C117.334 131.056 117.729 130.775 118.168 130.583C118.607 130.391 119.081 130.292 119.559 130.292C120.038 130.292 120.512 130.391 120.951 130.583C121.39 130.775 121.785 131.056 122.111 131.408H122.185C122.535 131.745 122.814 132.149 123.005 132.597C123.196 133.045 123.294 133.527 123.294 134.014C123.294 134.502 123.195 134.984 123.005 135.432C122.814 135.88 122.535 136.284 122.184 136.62Z" fill="#FFD400"/>
<path d="M122.184 131.408C122.535 131.744 122.814 132.149 123.005 132.597C123.196 133.045 123.294 133.527 123.294 134.014C123.294 134.501 123.196 134.984 123.005 135.432C122.814 135.88 122.535 136.284 122.184 136.62L111.754 147.191C111.045 147.842 110.125 148.212 109.166 148.234C108.181 148.227 107.233 147.856 106.502 147.191V147.117L122.107 131.412L122.184 131.408Z" fill="#FDBF00"/>
<path d="M123.789 82.5738C97.5215 82.5738 89.2321 104.925 88.5671 105.671C88.2826 106.239 88.1471 106.87 88.1737 107.506C88.2002 108.141 88.3879 108.759 88.7188 109.3C89.0497 109.842 89.5128 110.289 90.0641 110.599C90.6153 110.91 91.2364 111.073 91.868 111.073L115.764 113.199L128.344 82.573H123.789V82.5738Z" fill="#FF7816"/>
<path d="M140.198 137.748L141.989 161.518C141.991 162.153 142.153 162.778 142.462 163.332C142.77 163.887 143.215 164.352 143.752 164.685C144.29 165.018 144.904 165.207 145.534 165.234C146.165 165.261 146.792 165.126 147.356 164.84C148.097 164.172 170.306 155.67 170.306 129.39V124.806L140.198 137.748Z" fill="#FF4B00"/>
<path d="M143.191 141.98C139.27 143.993 135.349 145.926 131.652 147.787C130.957 148.14 130.17 148.266 129.4 148.146C128.63 148.026 127.917 147.666 127.362 147.117L106.502 126.123C105.957 125.563 105.599 124.846 105.48 124.071C105.361 123.297 105.486 122.504 105.837 121.805C107.687 118.082 109.61 114.137 111.607 110.191C112.79 107.883 121.37 113.021 122.555 110.638L142.748 130.962C140.38 132.153 145.485 140.789 143.191 141.98Z" fill="#FF9F00"/>
<path d="M143.191 141.98C139.27 143.993 135.349 145.926 131.652 147.787C130.957 148.141 130.169 148.266 129.399 148.146C128.63 148.026 127.917 147.666 127.361 147.117L116.932 136.62L132.687 120.834L142.749 130.962C140.38 132.153 145.484 140.789 143.191 141.98Z" fill="#FF7816"/>
<path d="M203.921 82.9427C200.893 95.2596 194.424 106.446 185.28 115.181C174.406 125.752 157.023 134.983 143.188 141.981L127.433 126.124L111.605 110.187C118.558 96.2654 127.731 78.6967 138.235 67.824C146.913 58.6206 158.027 52.1102 170.264 49.0625L177.735 51.8169C177.841 58.0456 180.332 63.9928 184.688 68.4183C189.086 72.8029 194.995 75.3098 201.184 75.4163L203.921 82.9427Z" fill="url(#paint2_linear)"/>
<path d="M203.921 82.9434C200.893 95.2598 194.424 106.446 185.28 115.18C174.406 125.751 157.023 134.983 143.188 141.981L127.433 126.123L184.688 68.4255C189.085 72.8093 194.993 75.3162 201.181 75.4235L203.921 82.9434Z" fill="url(#paint3_linear)"/>
<path d="M174.481 78.6991C171.018 75.2142 166.322 73.2564 161.425 73.2565C156.528 73.2565 151.832 75.2144 148.369 78.6995C144.907 82.1845 142.962 86.9111 142.962 91.8396C142.962 96.7681 144.907 101.495 148.37 104.98V105.054C151.847 108.515 156.545 110.448 161.435 110.431C166.326 110.413 171.01 108.447 174.463 104.961C177.917 101.476 179.857 96.7559 179.86 91.8339C179.864 86.9119 177.929 82.189 174.481 78.6991Z" fill="#76E2F8"/>
<path d="M203.921 82.9426C203.328 82.9426 201.627 82.8685 201.036 82.8685C192.925 82.7709 185.173 79.4845 179.437 73.7115C173.701 67.9386 170.436 60.1368 170.339 51.9731C170.339 51.3771 170.265 49.6649 170.265 49.0697C180.767 46.3145 192.53 45.642 203.333 46.0914C203.8 46.0898 204.263 46.1813 204.694 46.3606C205.126 46.5399 205.518 46.8035 205.848 47.1361C206.178 47.4687 206.439 47.8638 206.616 48.2985C206.793 48.7333 206.883 49.199 206.881 49.6689C207.323 60.5336 206.584 72.3711 203.921 82.9426Z" fill="#FF9F00"/>
<path d="M143.043 115.551C142.53 116.066 141.878 116.417 141.168 116.559C140.458 116.701 139.722 116.628 139.053 116.349C138.384 116.07 137.812 115.598 137.41 114.992C137.008 114.386 136.793 113.674 136.793 112.945C136.793 112.217 137.008 111.504 137.41 110.898C137.812 110.292 138.384 109.82 139.053 109.541C139.722 109.262 140.458 109.189 141.168 109.331C141.878 109.473 142.53 109.824 143.043 110.339C143.393 110.676 143.672 111.08 143.863 111.528C144.054 111.976 144.152 112.458 144.152 112.945C144.152 113.433 144.054 113.915 143.863 114.363C143.672 114.811 143.393 115.215 143.043 115.551Z" fill="#5A5A5A"/>
<path d="M203.921 82.9427C203.329 82.9427 201.627 82.8686 201.036 82.8686C192.924 82.7757 185.17 79.4888 179.437 73.7121L205.844 47.1344C206.174 47.4661 206.436 47.8608 206.614 48.2954C206.792 48.7299 206.882 49.1958 206.879 49.6657C207.322 60.5336 206.583 72.3712 203.921 82.9427Z" fill="#FF7816"/>
<path d="M174.48 105.054C171.009 108.523 166.316 110.47 161.424 110.47C156.533 110.47 151.84 108.523 148.369 105.054V104.98L174.48 78.6991C176.203 80.4275 177.57 82.4812 178.503 84.7424C179.436 87.0037 179.916 89.428 179.916 91.8764C179.916 94.3248 179.436 96.7492 178.503 99.0104C177.57 101.272 176.203 103.325 174.48 105.054Z" fill="#25D9F8"/>
<path d="M143.043 115.551C142.709 115.904 142.307 116.185 141.862 116.377C141.417 116.568 140.938 116.667 140.454 116.667C139.97 116.667 139.491 116.568 139.046 116.377C138.601 116.185 138.199 115.904 137.865 115.551L143.043 110.339C143.393 110.675 143.672 111.08 143.863 111.528C144.054 111.976 144.152 112.458 144.152 112.945C144.152 113.433 144.054 113.915 143.863 114.363C143.672 114.811 143.393 115.215 143.043 115.551Z" fill="#444444"/>
<path d="M110.355 129.427L162.928 72.8425C163.138 72.6164 163.302 72.3508 163.41 72.061C163.518 71.7712 163.568 71.4627 163.558 71.1533C163.547 70.8439 163.476 70.5396 163.348 70.2578C163.221 69.976 163.039 69.7223 162.814 69.5111C162.59 69.3 162.326 69.1354 162.038 69.027C161.75 68.9185 161.443 68.8681 161.136 68.8788C160.829 68.8895 160.527 68.961 160.247 69.0892C159.967 69.2174 159.716 69.3998 159.506 69.626L110.866 122.123L110.355 129.427Z" fill="#316AE8"/>
<path d="M107.709 112.848L154.415 62.4376L134.189 43.4546L87.4827 93.8652L107.709 112.848Z" fill="#F9B569"/>
<g style="mix-blend-mode:multiply" opacity="0.25">
<path d="M88.2268 94.5668L138.935 47.9034L134.192 43.4524L87.4814 93.8673L88.2268 94.5668Z" fill="#F9B569"/>
</g>
<path d="M110.907 122.16L157.617 71.7458L151.287 65.8047L104.577 116.219L110.907 122.16Z" fill="#FA9B49"/>
<path d="M157.617 71.7458L151.286 65.8041L104.576 116.219" fill="#FA9B49"/>
<g style="mix-blend-mode:multiply" opacity="0.25">
<path d="M152.576 67.0131L151.288 65.8041L104.576 116.22" fill="#FA9B49"/>
</g>
<g style="mix-blend-mode:multiply" opacity="0.55">
<path d="M117.023 61.9858L127.934 72.2263L125.076 73.067L124.473 75.4887L122.115 76.2623L121.513 78.6842L119.154 79.4578L118.552 81.8796L116.194 82.6532L115.56 85.5815L104.649 75.3411L117.023 61.9858Z" fill="#FA9B49"/>
</g>
<path d="M83.3299 98.3561L130.04 47.9418L123.71 42.0007L76.9998 92.415L83.3299 98.3561Z" fill="#FA9B49"/>
<path d="M103.665 64.1177C100.908 66.9817 101.3 71.1456 102.353 74.8988C103.789 80.0072 106.273 84.8962 108.968 89.5377C111.552 93.9321 114.395 98.131 117.487 102.117C122.546 108.714 127.307 115.526 132.45 122.06C135.268 125.642 138.015 129.283 140.871 132.834C142.269 134.572 145.712 140.054 148.22 139.939L148.964 139.147C149.118 139.459 149.183 139.823 149.153 140.206C149.072 140.68 148.438 140.953 148.229 140.977C146.497 141.175 144.482 138.918 143.176 137.401C140.712 134.537 138.352 131.619 136.03 128.638C130.251 121.213 124.592 113.747 118.966 106.207C111.747 96.5334 103.814 86.181 100.911 74.458C99.9674 70.6473 99.5444 65.8823 103.031 63.9804C103.318 63.8557 103.618 63.814 103.893 63.8604L103.665 64.1177Z" fill="#714000"/>
<path d="M108.348 58.077C110.278 55.8152 113.302 57.054 116.337 59.2546C119.362 61.447 122.359 63.6814 125.343 65.9359C132.779 71.552 140.111 77.3249 147.407 83.1387C159.214 92.5483 171.117 101.979 182.441 112.014C183.302 112.777 184.829 113.815 185.396 114.845C186.645 117.097 183.085 119.519 181.103 119.342L182.334 118.012C182.334 118.012 184.735 116.61 184.254 115.425C184.009 115.126 183.735 114.855 183.436 114.612C182.311 113.533 181.121 112.517 179.945 111.497C175.709 107.823 171.399 104.246 167.077 100.685C155.177 90.874 143.139 81.2474 130.96 71.8056C127.626 69.2278 124.281 66.6705 120.924 64.1337C119.386 62.9757 117.842 61.8274 116.292 60.6886C113.683 58.7728 110.552 56.5001 108.268 59.114L107.949 59.4584C107.949 59.4584 107.471 59.1052 108.348 58.077Z" fill="#714000"/>
</g>
</g>
<defs>
<linearGradient id="paint0_linear" x1="210.927" y1="-0.00134277" x2="210.927" y2="50.1378" gradientUnits="userSpaceOnUse">
<stop stop-color="#E1DDF8"/>
<stop offset="1" stop-color="white"/>
</linearGradient>
<linearGradient id="paint1_linear" x1="141.503" y1="150.497" x2="141.503" y2="208.007" gradientUnits="userSpaceOnUse">
<stop stop-color="#E1DDF8"/>
<stop offset="1" stop-color="white"/>
</linearGradient>
<linearGradient id="paint2_linear" x1="111.605" y1="92.3627" x2="203.921" y2="92.8213" gradientUnits="userSpaceOnUse">
<stop stop-color="#8160EF"/>
<stop offset="1" stop-color="#5927FF"/>
</linearGradient>
<linearGradient id="paint3_linear" x1="127.433" y1="102.702" x2="203.921" y2="103.1" gradientUnits="userSpaceOnUse">
<stop stop-color="#8160EF"/>
<stop offset="1" stop-color="#5927FF"/>
</linearGradient>
<clipPath id="clip0">
<rect width="283" height="208" fill="white"/>
</clipPath>
<clipPath id="clip1">
<rect x="77" y="42" width="130" height="131" fill="white"/>
</clipPath>
</defs>
</svg>
